League Spartan-Extralight.ufo
<glyph name="exclam" format="2">
	<advance width="394"/>
	<unicode hex="0021"/>
	<outline>
		<contour>
			<point x="159" y="860" type="line"/>
			<point x="170" y="195" type="line"/>
			<point x="199" y="195" type="line"/>
			<point x="211" y="860" type="line"/>
		</contour>
		<contour>
			<point x="184" y="-15" type="curve"/>
			<point x="184" y="-15" type="line"/>
			<point x="217" y="-15"/>
			<point x="243" y="11"/>
			<point x="243" y="44" type="curve"/>
			<point x="243" y="78"/>
			<point x="217" y="104"/>
			<point x="184" y="104" type="curve"/>
			<point x="151" y="104"/>
			<point x="125" y="78"/>
			<point x="125" y="44" type="curve"/>
			<point x="125" y="11"/>
			<point x="151" y="-15"/>
		</contour>
	</outline>
</glyph>
<glyph name="quotedbl" format="2">
	<advance width="442"/>
	<unicode hex="0022"/>
	<outline>
		<contour>
			<point x="125" y="803" type="curve"/>
			<point x="125" y="803" type="line"/>
			<point x="97" y="803"/>
			<point x="84" y="780"/>
			<point x="84" y="755" type="curve"/>
			<point x="84" y="752" type="line" smooth="yes"/>
			<point x="84" y="732"/>
			<point x="94" y="637"/>
			<point x="102" y="571" type="curve"/>
			<point x="136" y="571" type="line"/>
			<point x="149" y="637"/>
			<point x="166" y="732"/>
			<point x="166" y="752" type="curve"/>
			<point x="166" y="755" type="line" smooth="yes"/>
			<point x="166" y="779"/>
			<point x="154" y="803"/>
		</contour>
		<contour>
			<point x="291" y="803" type="curve"/>
			<point x="291" y="803" type="line"/>
			<point x="262" y="803"/>
			<point x="250" y="780"/>
			<point x="250" y="755" type="curve"/>
			<point x="250" y="752" type="line" smooth="yes"/>
			<point x="250" y="732"/>
			<point x="260" y="637"/>
			<point x="268" y="571" type="curve"/>
			<point x="301" y="571" type="line"/>
			<point x="314" y="637"/>
			<point x="332" y="732"/>
			<point x="332" y="752" type="curve"/>
			<point x="332" y="755" type="line" smooth="yes"/>
			<point x="332" y="780"/>
			<point x="320" y="803"/>
		</contour>
	</outline>
</glyph>
<glyph name="numbersign" format="2">
	<advance width="759"/>
	<unicode hex="0023"/>
	<outline>
		<contour>
			<point x="398" y="825" type="line"/>
			<point x="364" y="825" type="line"/>
			<point x="146" y="0" type="line"/>
			<point x="180" y="0" type="line"/>
		</contour>
		<contour>
			<point x="612" y="825" type="line"/>
			<point x="578" y="825" type="line"/>
			<point x="360" y="0" type="line"/>
			<point x="394" y="0" type="line"/>
		</contour>
		<contour>
			<point x="674" y="572" type="line"/>
			<point x="162" y="572" type="line"/>
			<point x="150" y="536" type="line"/>
			<point x="662" y="536" type="line"/>
		</contour>
		<contour>
			<point x="609" y="290" type="line"/>
			<point x="97" y="290" type="line"/>
			<point x="85" y="255" type="line"/>
			<point x="597" y="255" type="line"/>
		</contour>
	</outline>
</glyph>
<glyph name="dollar" format="2">
	<advance width="627"/>
	<unicode hex="0024"/>
	<outline>
		<contour>
			<point x="339" y="959" type="line"/>
			<point x="302" y="959" type="line"/>
			<point x="302" y="817" type="line"/>
			<point x="339" y="817" type="line"/>
		</contour>
		<contour>
			<point x="339" y="13" type="line"/>
			<point x="302" y="13" type="line"/>
			<point x="302" y="-129" type="line"/>
			<point x="339" y="-129" type="line"/>
		</contour>
		<component base="S"/>
	</outline>
</glyph>
<glyph name="percent" format="2">
	<advance width="862"/>
	<unicode hex="0025"/>
	<outline>
		<contour>
			<point x="679" y="825" type="line"/>
			<point x="638" y="825" type="line"/>
			<point x="158" y="0" type="line"/>
			<point x="199" y="0" type="line"/>
		</contour>
		<contour>
			<point x="65" y="643" type="curve"/>
			<point x="65" y="643" type="line"/>
			<point x="65" y="563"/>
			<point x="125" y="504"/>
			<point x="211" y="504" type="curve"/>
			<point x="292" y="504"/>
			<point x="355" y="563"/>
			<point x="355" y="643" type="curve"/>
			<point x="355" y="725"/>
			<point x="287" y="783"/>
			<point x="211" y="783" type="curve"/>
			<point x="131" y="783"/>
			<point x="65" y="725"/>
		</contour>
		<contour>
			<point x="102" y="643" type="curve"/>
			<point x="102" y="643" type="line"/>
			<point x="102" y="708"/>
			<point x="148" y="749"/>
			<point x="210" y="749" type="curve"/>
			<point x="269" y="749"/>
			<point x="318" y="708"/>
			<point x="318" y="643" type="curve"/>
			<point x="318" y="575"/>
			<point x="270" y="538"/>
			<point x="210" y="538" type="curve"/>
			<point x="145" y="538"/>
			<point x="102" y="576"/>
		</contour>
		<contour>
			<point x="483" y="181" type="curve"/>
			<point x="483" y="181" type="line"/>
			<point x="483" y="101"/>
			<point x="543" y="42"/>
			<point x="629" y="42" type="curve"/>
			<point x="710" y="42"/>
			<point x="773" y="101"/>
			<point x="773" y="181" type="curve"/>
			<point x="773" y="263"/>
			<point x="705" y="321"/>
			<point x="629" y="321" type="curve"/>
			<point x="549" y="321"/>
			<point x="483" y="263"/>
		</contour>
		<contour>
			<point x="520" y="181" type="curve"/>
			<point x="520" y="181" type="line"/>
			<point x="520" y="246"/>
			<point x="566" y="287"/>
			<point x="628" y="287" type="curve"/>
			<point x="687" y="287"/>
			<point x="736" y="246"/>
			<point x="736" y="181" type="curve"/>
			<point x="736" y="113"/>
			<point x="688" y="76"/>
			<point x="628" y="76" type="curve"/>
			<point x="563" y="76"/>
			<point x="520" y="114"/>
		</contour>
	</outline>
</glyph>
<glyph name="ampersand" format="2">
	<advance width="809"/>
	<unicode hex="0026"/>
	<outline>
		<contour>
			<point x="52" y="193" type="curve"/>
			<point x="52" y="193" type="line"/>
			<point x="52" y="74"/>
			<point x="140" y="-15"/>
			<point x="280" y="-15" type="curve"/>
			<point x="421" y="-15"/>
			<point x="530" y="67"/>
			<point x="597" y="138" type="curve"/>
			<point x="724" y="0" type="line"/>
			<point x="778" y="0" type="line"/>
			<point x="622" y="167" type="line"/>
			<point x="647" y="194"/>
			<point x="694" y="266"/>
			<point x="705" y="295" type="curve"/>
			<point x="676" y="315" type="line"/>
			<point x="651" y="262"/>
			<point x="617" y="213"/>
			<point x="598" y="190" type="curve"/>
			<point x="372" y="440" type="line"/>
			<point x="403" y="451"/>
			<point x="574" y="512"/>
			<point x="574" y="671" type="curve"/>
			<point x="574" y="768"/>
			<point x="499" y="840"/>
			<point x="387" y="840" type="curve"/>
			<point x="281" y="840"/>
			<point x="193" y="769"/>
			<point x="193" y="671" type="curve"/>
			<point x="193" y="579"/>
			<point x="284" y="478"/>
			<point x="307" y="455" type="curve"/>
			<point x="257" y="439"/>
			<point x="52" y="371"/>
		</contour>
		<contour>
			<point x="332" y="426" type="curve"/>
			<point x="332" y="426" type="line"/>
			<point x="575" y="163" type="line"/>
			<point x="521" y="102"/>
			<point x="404" y="21"/>
			<point x="279" y="21" type="curve"/>
			<point x="180" y="21"/>
			<point x="89" y="80"/>
			<point x="89" y="193" type="curve"/>
			<point x="89" y="352"/>
			<point x="288" y="415"/>
		</contour>
		<contour>
			<point x="385" y="801" type="curve"/>
			<point x="385" y="801" type="line"/>
			<point x="473" y="801"/>
			<point x="537" y="745"/>
			<point x="537" y="671" type="curve"/>
			<point x="537" y="535"/>
			<point x="397" y="480"/>
			<point x="348" y="467" type="curve"/>
			<point x="341" y="474"/>
			<point x="231" y="585"/>
			<point x="231" y="671" type="curve"/>
			<point x="231" y="734"/>
			<point x="287" y="801"/>
		</contour>
	</outline>
</glyph>
<glyph name="quotesingle" format="2">
	<advance width="265"/>
	<unicode hex="0027"/>
	<outline>
		<contour>
			<point x="120" y="803" type="curve"/>
			<point x="120" y="803" type="line"/>
			<point x="92" y="803"/>
			<point x="79" y="780"/>
			<point x="79" y="755" type="curve"/>
			<point x="79" y="736"/>
			<point x="87" y="652"/>
			<point x="97" y="571" type="curve"/>
			<point x="131" y="571" type="line"/>
			<point x="148" y="655"/>
			<point x="161" y="734"/>
			<point x="161" y="755" type="curve"/>
			<point x="161" y="779"/>
			<point x="149" y="803"/>
		</contour>
	</outline>
</glyph>
<glyph name="parenleft" format="2">
	<advance width="358"/>
	<unicode hex="0028"/>
	<outline>
		<contour>
			<point x="238" y="-248" type="curve"/>
			<point x="238" y="-248" type="line"/>
			<point x="268" y="-219" type="line"/>
			<point x="204" y="-138"/>
			<point x="118" y="58"/>
			<point x="118" y="297" type="curve"/>
			<point x="118" y="551"/>
			<point x="205" y="758"/>
			<point x="270" y="843" type="curve"/>
			<point x="235" y="870" type="line"/>
			<point x="167" y="777"/>
			<point x="76" y="557"/>
			<point x="76" y="297" type="curve"/>
			<point x="76" y="44"/>
			<point x="168" y="-162"/>
		</contour>
	</outline>
</glyph>
<glyph name="asterisk" format="2">
	<advance width="533"/>
	<unicode hex="002A"/>
	<outline>
		<contour>
			<point x="402" y="757" type="line"/>
			<point x="275" y="713" type="line"/>
			<point x="274" y="848" type="line"/>
			<point x="235" y="848" type="line"/>
			<point x="234" y="713" type="line"/>
			<point x="106" y="757" type="line"/>
			<point x="94" y="720" type="line"/>
			<point x="224" y="675" type="line"/>
			<point x="142" y="564" type="line"/>
			<point x="173" y="543" type="line"/>
			<point x="254" y="651" type="line"/>
			<point x="329" y="542" type="line"/>
			<point x="360" y="563" type="line"/>
			<point x="285" y="675" type="line"/>
			<point x="415" y="720" type="line"/>
		</contour>
	</outline>
</glyph>
<glyph name="plus" format="2">
	<advance width="678"/>
	<unicode hex="002B"/>
	<outline>
		<contour>
			<point x="346" y="158" type="line"/>
			<point x="346" y="396" type="line"/>
			<point x="583" y="396" type="line"/>
			<point x="583" y="434" type="line"/>
			<point x="346" y="434" type="line"/>
			<point x="346" y="671" type="line"/>
			<point x="308" y="671" type="line"/>
			<point x="308" y="434" type="line"/>
			<point x="70" y="434" type="line"/>
			<point x="70" y="396" type="line"/>
			<point x="308" y="396" type="line"/>
			<point x="308" y="158" type="line"/>
		</contour>
	</outline>
</glyph>
<glyph name="comma" format="2">
	<advance width="332"/>
	<unicode hex="002C"/>
	<outline>
		<contour>
			<point x="153" y="110" type="curve"/>
			<point x="153" y="110" type="line"/>
			<point x="113" y="110"/>
			<point x="85" y="83"/>
			<point x="85" y="42" type="curve"/>
			<point x="85" y="13"/>
			<point x="111" y="-18"/>
			<point x="147" y="-19" type="curve"/>
			<point x="156" y="-19"/>
			<point x="166" y="-17"/>
			<point x="177" y="-12" type="curve"/>
			<point x="169" y="-53"/>
			<point x="122" y="-87"/>
			<point x="88" y="-102" type="curve"/>
			<point x="121" y="-131" type="line"/>
			<point x="177" y="-101"/>
			<point x="227" y="-42"/>
			<point x="227" y="35" type="curve"/>
			<point x="227" y="77"/>
			<point x="194" y="110"/>
		</contour>
	</outline>
</glyph>
<glyph name="hyphen" format="2">
	<advance width="487"/>
	<unicode hex="002D"/>
	<outline>
		<contour>
			<point x="70" y="304" type="line"/>
			<point x="70" y="266" type="line"/>
			<point x="392" y="266" type="line"/>
			<point x="392" y="304" type="line"/>
		</contour>
	</outline>
</glyph>
<glyph name="period" format="2">
	<advance width="394"/>
	<unicode hex="002E"/>
	<outline>
		<contour>
			<point x="184" y="-15" type="curve"/>
			<point x="184" y="-15" type="line"/>
			<point x="217" y="-15"/>
			<point x="243" y="11"/>
			<point x="243" y="44" type="curve"/>
			<point x="243" y="78"/>
			<point x="217" y="104"/>
			<point x="184" y="104" type="curve"/>
			<point x="151" y="104"/>
			<point x="125" y="78"/>
			<point x="125" y="44" type="curve"/>
			<point x="125" y="11"/>
			<point x="151" y="-15"/>
		</contour>
	</outline>
</glyph>
<glyph name="slash" format="2">
	<advance width="576"/>
	<unicode hex="002F"/>
	<outline>
		<contour>
			<point x="500" y="860" type="line"/>
			<point x="455" y="860" type="line"/>
			<point x="43" y="-120" type="line"/>
			<point x="88" y="-120" type="line"/>
		</contour>
	</outline>
</glyph>
<glyph name="zero" format="2">
	<advance width="714"/>
	<unicode hex="0030"/>
	<outline>
		<contour>
			<point x="54" y="412" type="curve"/>
			<point x="54" y="412" type="line"/>
			<point x="54" y="119"/>
			<point x="206" y="-15"/>
			<point x="345" y="-15" type="curve"/>
			<point x="485" y="-15"/>
			<point x="635" y="119"/>
			<point x="635" y="412" type="curve"/>
			<point x="635" y="711"/>
			<point x="485" y="840"/>
			<point x="345" y="840" type="curve"/>
			<point x="206" y="840"/>
			<point x="54" y="711"/>
		</contour>
		<contour>
			<point x="96" y="412" type="curve"/>
			<point x="96" y="412" type="line"/>
			<point x="96" y="673"/>
			<point x="217" y="800"/>
			<point x="345" y="800" type="curve"/>
			<point x="473" y="800"/>
			<point x="593" y="674"/>
			<point x="593" y="412" type="curve"/>
			<point x="593" y="154"/>
			<point x="473" y="25"/>
			<point x="345" y="25" type="curve"/>
			<point x="217" y="25"/>
			<point x="96" y="154"/>
		</contour>
	</outline>
</glyph>
<glyph name="one" format="2">
	<advance width="359"/>
	<unicode hex="0031"/>
	<outline>
		<contour>
			<point x="42" y="688" type="line"/>
			<point x="195" y="780" type="line"/>
			<point x="195" y="0" type="line"/>
			<point x="235" y="0" type="line"/>
			<point x="235" y="825" type="line"/>
			<point x="197" y="825" type="line"/>
			<point x="42" y="731" type="line"/>
		</contour>
	</outline>
</glyph>
<glyph name="two" format="2">
	<advance width="654"/>
	<unicode hex="0032"/>
	<outline>
		<contour>
			<point x="324" y="800" type="curve"/>
			<point x="324" y="800" type="line"/>
			<point x="444" y="800"/>
			<point x="511" y="749"/>
			<point x="511" y="601" type="curve"/>
			<point x="511" y="411"/>
			<point x="163" y="126"/>
			<point x="53" y="37" type="curve"/>
			<point x="53" y="0" type="line"/>
			<point x="546" y="0" type="line"/>
			<point x="546" y="40" type="line"/>
			<point x="123" y="40" type="line"/>
			<point x="174" y="81"/>
			<point x="553" y="393"/>
			<point x="553" y="602" type="curve"/>
			<point x="553" y="772"/>
			<point x="460" y="840"/>
			<point x="324" y="840" type="curve"/>
			<point x="132" y="840"/>
			<point x="48" y="674"/>
			<point x="45" y="663" type="curve"/>
			<point x="84" y="648" type="line"/>
			<point x="86" y="655"/>
			<point x="163" y="800"/>
		</contour>
	</outline>
</glyph>
<glyph name="three" format="2">
	<advance width="625"/>
	<unicode hex="0033"/>
	<outline>
		<contour>
			<point x="71" y="722" type="curve"/>
			<point x="71" y="722" type="line"/>
			<point x="111" y="704" type="line"/>
			<point x="112" y="707"/>
			<point x="153" y="800"/>
			<point x="292" y="800" type="curve"/>
			<point x="423" y="800"/>
			<point x="486" y="723"/>
			<point x="486" y="626" type="curve"/>
			<point x="486" y="516"/>
			<point x="394" y="452"/>
			<point x="295" y="452" type="curve"/>
			<point x="274" y="452" type="line"/>
			<point x="274" y="413" type="line"/>
			<point x="290" y="413" type="line"/>
			<point x="401" y="413"/>
			<point x="505" y="358"/>
			<point x="505" y="231" type="curve"/>
			<point x="505" y="119"/>
			<point x="429" y="25"/>
			<point x="290" y="25" type="curve"/>
			<point x="170" y="25"/>
			<point x="99" y="99"/>
			<point x="78" y="155" type="curve"/>
			<point x="42" y="133" type="line"/>
			<point x="66" y="69"/>
			<point x="149" y="-15"/>
			<point x="291" y="-15" type="curve"/>
			<point x="447" y="-15"/>
			<point x="548" y="94"/>
			<point x="548" y="231" type="curve"/>
			<point x="548" y="357"/>
			<point x="452" y="429"/>
			<point x="374" y="434" type="curve"/>
			<point x="452" y="444"/>
			<point x="527" y="521"/>
			<point x="527" y="628" type="curve"/>
			<point x="527" y="741"/>
			<point x="452" y="840"/>
			<point x="294" y="840" type="curve"/>
			<point x="137" y="840"/>
			<point x="76" y="737"/>
		</contour>
	</outline>
</glyph>
<glyph name="four" format="2">
	<advance width="581"/>
	<unicode hex="0034"/>
	<outline>
		<contour>
			<point x="426" y="214" type="line"/>
			<point x="426" y="825" type="line"/>
			<point x="394" y="825" type="line"/>
			<point x="33" y="212" type="line"/>
			<point x="33" y="174" type="line"/>
			<point x="386" y="174" type="line"/>
			<point x="386" y="0" type="line"/>
			<point x="426" y="0" type="line"/>
			<point x="426" y="174" type="line"/>
			<point x="520" y="174" type="line"/>
			<point x="520" y="214" type="line"/>
		</contour>
		<contour>
			<point x="386" y="729" type="line"/>
			<point x="386" y="214" type="line"/>
			<point x="83" y="214" type="line"/>
			<point x="386" y="729" type="line"/>
		</contour>
	</outline>
</glyph>
<glyph name="five" format="2">
	<advance width="648"/>
	<unicode hex="0035"/>
	<outline>
		<contour>
			<point x="106" y="140" type="curve"/>
			<point x="106" y="140" type="line"/>
			<point x="69" y="115" type="line"/>
			<point x="76" y="97"/>
			<point x="138" y="-15"/>
			<point x="303" y="-15" type="curve"/>
			<point x="478" y="-15"/>
			<point x="566" y="106"/>
			<point x="565" y="270" type="curve"/>
			<point x="564" y="435"/>
			<point x="464" y="521"/>
			<point x="337" y="521" type="curve"/>
			<point x="217" y="521"/>
			<point x="160" y="455"/>
			<point x="155" y="442" type="curve"/>
			<point x="205" y="785" type="line"/>
			<point x="533" y="785" type="line"/>
			<point x="533" y="825" type="line"/>
			<point x="166" y="825" type="line"/>
			<point x="99" y="371" type="line"/>
			<point x="141" y="360" type="line"/>
			<point x="161" y="412"/>
			<point x="227" y="481"/>
			<point x="333" y="481" type="curve"/>
			<point x="446" y="481"/>
			<point x="523" y="407"/>
			<point x="525" y="270" type="curve"/>
			<point x="527" y="121"/>
			<point x="441" y="25"/>
			<point x="303" y="25" type="curve"/>
			<point x="165" y="25"/>
			<point x="113" y="124"/>
		</contour>
	</outline>
</glyph>
<glyph name="six" format="2">
	<advance width="675"/>
	<unicode hex="0036"/>
	<outline>
		<contour>
			<point x="333" y="527" type="curve"/>
			<point x="333" y="527" type="line"/>
			<point x="249" y="527"/>
			<point x="185" y="496"/>
			<point x="160" y="468" type="curve"/>
			<point x="446" y="825" type="line"/>
			<point x="395" y="825" type="line"/>
			<point x="154" y="520" type="line" smooth="yes"/>
			<point x="97" y="448"/>
			<point x="52" y="376"/>
			<point x="52" y="267" type="curve"/>
			<point x="52" y="103"/>
			<point x="168" y="-15"/>
			<point x="323" y="-15" type="curve"/>
			<point x="473" y="-15"/>
			<point x="599" y="100"/>
			<point x="599" y="255" type="curve"/>
			<point x="599" y="410"/>
			<point x="481" y="527"/>
		</contour>
		<contour>
			<point x="327" y="24" type="curve"/>
			<point x="327" y="24" type="line"/>
			<point x="198" y="24"/>
			<point x="94" y="128"/>
			<point x="94" y="257" type="curve"/>
			<point x="94" y="385"/>
			<point x="198" y="489"/>
			<point x="327" y="489" type="curve"/>
			<point x="455" y="489"/>
			<point x="559" y="385"/>
			<point x="559" y="257" type="curve"/>
			<point x="559" y="128"/>
			<point x="455" y="24"/>
		</contour>
	</outline>
</glyph>
<glyph name="seven" format="2">
	<advance width="623"/>
	<unicode hex="0037"/>
	<outline>
		<contour>
			<point x="562" y="825" type="line"/>
			<point x="80" y="825" type="line"/>
			<point x="80" y="785" type="line"/>
			<point x="514" y="785" type="line"/>
			<point x="67" y="0" type="line"/>
			<point x="114" y="0" type="line"/>
			<point x="562" y="789" type="line"/>
		</contour>
	</outline>
</glyph>
<glyph name="eight" format="2">
	<advance width="672"/>
	<unicode hex="0038"/>
	<outline>
		<contour>
			<point x="324" y="-15" type="curve"/>
			<point x="324" y="-15" type="line"/>
			<point x="474" y="-15"/>
			<point x="570" y="93"/>
			<point x="570" y="223" type="curve"/>
			<point x="570" y="351"/>
			<point x="491" y="419"/>
			<point x="407" y="445" type="curve"/>
			<point x="471" y="470"/>
			<point x="533" y="526"/>
			<point x="533" y="634" type="curve"/>
			<point x="533" y="754"/>
			<point x="443" y="840"/>
			<point x="323" y="840" type="curve"/>
			<point x="203" y="840"/>
			<point x="112" y="754"/>
			<point x="112" y="634" type="curve"/>
			<point x="112" y="526"/>
			<point x="179" y="467"/>
			<point x="239" y="445" type="curve"/>
			<point x="154" y="419"/>
			<point x="76" y="351"/>
			<point x="76" y="223" type="curve"/>
			<point x="76" y="93"/>
			<point x="174" y="-15"/>
		</contour>
		<contour>
			<point x="323" y="25" type="curve"/>
			<point x="323" y="25" type="line"/>
			<point x="209" y="25"/>
			<point x="119" y="111"/>
			<point x="119" y="224" type="curve"/>
			<point x="119" y="337"/>
			<point x="209" y="423"/>
			<point x="323" y="423" type="curve"/>
			<point x="436" y="423"/>
			<point x="527" y="337"/>
			<point x="527" y="224" type="curve"/>
			<point x="527" y="111"/>
			<point x="436" y="25"/>
		</contour>
		<contour>
			<point x="323" y="463" type="curve"/>
			<point x="323" y="463" type="line"/>
			<point x="230" y="463"/>
			<point x="154" y="539"/>
			<point x="154" y="632" type="curve"/>
			<point x="154" y="724"/>
			<point x="230" y="800"/>
			<point x="323" y="800" type="curve"/>
			<point x="415" y="800"/>
			<point x="491" y="724"/>
			<point x="491" y="632" type="curve"/>
			<point x="491" y="539"/>
			<point x="415" y="463"/>
		</contour>
	</outline>
</glyph>
<glyph name="equal" format="2">
	<advance width="628"/>
	<unicode hex="003D"/>
	<outline>
		<contour>
			<point x="76" y="531" type="line"/>
			<point x="76" y="493" type="line"/>
			<point x="527" y="493" type="line"/>
			<point x="527" y="531" type="line"/>
		</contour>
		<contour>
			<point x="76" y="339" type="line"/>
			<point x="76" y="301" type="line"/>
			<point x="527" y="301" type="line"/>
			<point x="527" y="339" type="line"/>
		</contour>
	</outline>
</glyph>
<glyph name="greater" format="2">
	<advance width="667"/>
	<unicode hex="003E"/>
	<outline>
		<contour>
			<point x="70" y="190" type="line"/>
			<point x="70" y="148" type="line"/>
			<point x="567" y="392" type="line"/>
			<point x="567" y="440" type="line"/>
			<point x="70" y="685" type="line"/>
			<point x="70" y="642" type="line"/>
			<point x="536" y="416" type="line"/>
		</contour>
	</outline>
</glyph>
<glyph name="question" format="2">
	<advance width="557"/>
	<unicode hex="003F"/>
	<outline>
		<contour>
			<point x="244" y="377" type="curve"/>
			<point x="244" y="195" type="line"/>
			<point x="284" y="195" type="line"/>
			<point x="284" y="352" type="line" smooth="yes"/>
			<point x="284" y="398"/>
			<point x="289" y="412"/>
			<point x="321" y="433" type="curve"/>
			<point x="414" y="495"/>
			<point x="488" y="560"/>
			<point x="488" y="661" type="curve"/>
			<point x="488" y="767"/>
			<point x="406" y="840"/>
			<point x="267" y="840" type="curve"/>
			<point x="126" y="840"/>
			<point x="48" y="736"/>
			<point x="41" y="699" type="curve"/>
			<point x="78" y="680" type="line"/>
			<point x="90" y="725"/>
			<point x="157" y="800"/>
			<point x="266" y="800" type="curve"/>
			<point x="374" y="800"/>
			<point x="448" y="754"/>
			<point x="448" y="661" type="curve"/>
			<point x="448" y="566"/>
			<point x="364" y="501"/>
			<point x="301" y="462" type="curve"/>
			<point x="264" y="439"/>
			<point x="244" y="423"/>
		</contour>
		<contour>
			<point x="264" y="-15" type="curve"/>
			<point x="264" y="-15" type="line"/>
			<point x="296" y="-15"/>
			<point x="322" y="11"/>
			<point x="322" y="44" type="curve"/>
			<point x="322" y="78"/>
			<point x="296" y="104"/>
			<point x="264" y="104" type="curve"/>
			<point x="231" y="104"/>
			<point x="205" y="78"/>
			<point x="205" y="44" type="curve"/>
			<point x="205" y="11"/>
			<point x="231" y="-15"/>
		</contour>
	</outline>
</glyph>
<glyph name="at" format="2">
	<advance width="966"/>
	<unicode hex="0040"/>
	<outline>
		<contour>
			<point x="473" y="-15" type="curve"/>
			<point x="473" y="-15" type="line"/>
			<point x="627" y="-15"/>
			<point x="742" y="61"/>
			<point x="786" y="118" type="curve"/>
			<point x="752" y="145" type="line"/>
			<point x="714" y="93"/>
			<point x="612" y="23"/>
			<point x="473" y="23" type="curve"/>
			<point x="265" y="23"/>
			<point x="73" y="188"/>
			<point x="73" y="413" type="curve"/>
			<point x="73" y="640"/>
			<point x="276" y="802"/>
			<point x="488" y="802" type="curve"/>
			<point x="705" y="802"/>
			<point x="869" y="643"/>
			<point x="869" y="442" type="curve"/>
			<point x="869" y="306"/>
			<point x="780" y="250"/>
			<point x="727" y="250" type="curve"/>
			<point x="670" y="250"/>
			<point x="661" y="305"/>
			<point x="661" y="324" type="curve"/>
			<point x="661" y="595" type="line"/>
			<point x="621" y="595" type="line"/>
			<point x="621" y="523" type="line"/>
			<point x="617" y="539"/>
			<point x="556" y="610"/>
			<point x="454" y="610" type="curve"/>
			<point x="320" y="610"/>
			<point x="241" y="518"/>
			<point x="241" y="406" type="curve"/>
			<point x="241" y="294"/>
			<point x="320" y="200"/>
			<point x="454" y="200" type="curve"/>
			<point x="550" y="200"/>
			<point x="621" y="260"/>
			<point x="627" y="310" type="curve"/>
			<point x="627" y="257"/>
			<point x="652" y="217"/>
			<point x="728" y="217" type="curve"/>
			<point x="813" y="217"/>
			<point x="909" y="299"/>
			<point x="909" y="442" type="curve"/>
			<point x="909" y="678"/>
			<point x="722" y="840"/>
			<point x="488" y="840" type="curve"/>
			<point x="244" y="840"/>
			<point x="33" y="667"/>
			<point x="33" y="413" type="curve"/>
			<point x="33" y="159"/>
			<point x="229" y="-15"/>
		</contour>
		<contour>
			<point x="454" y="237" type="curve"/>
			<point x="454" y="237" type="line"/>
			<point x="348" y="237"/>
			<point x="281" y="312"/>
			<point x="281" y="406" type="curve"/>
			<point x="281" y="502"/>
			<point x="354" y="573"/>
			<point x="454" y="573" type="curve"/>
			<point x="547" y="573"/>
			<point x="622" y="507"/>
			<point x="622" y="411" type="curve"/>
			<point x="622" y="317"/>
			<point x="561" y="237"/>
		</contour>
	</outline>
</glyph>
<glyph name="A" format="2">
	<advance width="679"/>
	<unicode hex="0041"/>
	<anchor x="586" y="10" name="ogonek"/>
	<anchor x="342" y="0" name="bottom"/>
	<anchor x="342" y="825" name="top"/>
	<outline>
		<contour>
			<point x="366" y="825" type="line"/>
			<point x="318" y="825" type="line"/>
			<point x="29" y="0" type="line"/>
			<point x="71" y="0" type="line"/>
			<point x="153" y="226" type="line"/>
			<point x="531" y="226" type="line"/>
			<point x="612" y="0" type="line"/>
			<point x="654" y="0" type="line"/>
		</contour>
		<contour>
			<point x="521" y="266" type="line"/>
			<point x="164" y="266" type="line"/>
			<point x="341" y="773" type="line"/>
			<point x="343" y="773" type="line"/>
		</contour>
	</outline>
</glyph>
<glyph name="B" format="2">
	<advance width="638"/>
	<unicode hex="0042"/>
	<anchor x="307" y="825" name="top"/>
	<anchor x="307" y="0" name="bottom"/>
	<outline>
		<contour>
			<point x="263" y="825" type="curve"/>
			<point x="79" y="825" type="line"/>
			<point x="79" y="0" type="line"/>
			<point x="321" y="0" type="line" smooth="yes"/>
			<point x="492" y="0"/>
			<point x="562" y="97"/>
			<point x="562" y="230" type="curve"/>
			<point x="562" y="364"/>
			<point x="438" y="424"/>
			<point x="390" y="426" type="curve"/>
			<point x="438" y="430"/>
			<point x="518" y="518"/>
			<point x="518" y="628" type="curve"/>
			<point x="518" y="784"/>
			<point x="393" y="825"/>
		</contour>
		<contour>
			<point x="339" y="39" type="curve"/>
			<point x="117" y="39" type="line"/>
			<point x="117" y="402" type="line"/>
			<point x="326" y="402" type="line" smooth="yes"/>
			<point x="455" y="402"/>
			<point x="523" y="323"/>
			<point x="523" y="225" type="curve"/>
			<point x="523" y="137"/>
			<point x="490" y="39"/>
		</contour>
		<contour>
			<point x="308" y="440" type="curve"/>
			<point x="117" y="440" type="line"/>
			<point x="117" y="786" type="line"/>
			<point x="283" y="786" type="line" smooth="yes"/>
			<point x="401" y="786"/>
			<point x="479" y="742"/>
			<point x="479" y="623" type="curve"/>
			<point x="479" y="542"/>
			<point x="426" y="440"/>
		</contour>
	</outline>
</glyph>
<glyph name="C" format="2">
	<advance width="660"/>
	<unicode hex="0043"/>
	<anchor x="392" y="825" name="top"/>
	<anchor x="392" y="0" name="bottom"/>
	<outline>
		<contour>
			<point x="578" y="758" type="curve"/>
			<point x="578" y="758" type="line"/>
			<point x="578" y="802" type="line"/>
			<point x="545" y="824"/>
			<point x="492" y="840"/>
			<point x="407" y="840" type="curve"/>
			<point x="179" y="840"/>
			<point x="30" y="654"/>
			<point x="30" y="413" type="curve"/>
			<point x="30" y="172"/>
			<point x="161" y="-15"/>
			<point x="407" y="-15" type="curve"/>
			<point x="490" y="-15"/>
			<point x="554" y="9"/>
			<point x="578" y="28" type="curve"/>
			<point x="578" y="71" type="line"/>
			<point x="556" y="57"/>
			<point x="504" y="24"/>
			<point x="407" y="24" type="curve"/>
			<point x="227" y="24"/>
			<point x="71" y="170"/>
			<point x="71" y="413" type="curve"/>
			<point x="71" y="656"/>
			<point x="236" y="801"/>
			<point x="407" y="801" type="curve"/>
			<point x="507" y="801"/>
			<point x="559" y="770"/>
		</contour>
	</outline>
</glyph>
<glyph name="D" format="2">
	<advance width="680"/>
	<unicode hex="0044"/>
	<anchor x="104" y="413" name="center"/>
	<anchor x="324" y="0" name="bottom"/>
	<anchor x="324" y="825" name="top"/>
	<outline>
		<contour>
			<point x="226" y="825" type="curve"/>
			<point x="77" y="825" type="line"/>
			<point x="77" y="0" type="line"/>
			<point x="226" y="0" type="line" smooth="yes"/>
			<point x="491" y="0"/>
			<point x="605" y="172"/>
			<point x="605" y="413" type="curve"/>
			<point x="605" y="653"/>
			<point x="490" y="825"/>
		</contour>
		<contour>
			<point x="115" y="40" type="line"/>
			<point x="115" y="785" type="line"/>
			<point x="224" y="785" type="line" smooth="yes"/>
			<point x="465" y="785"/>
			<point x="566" y="630"/>
			<point x="565" y="412" type="curve"/>
			<point x="564" y="194"/>
			<point x="463" y="40"/>
			<point x="224" y="40" type="curve"/>
		</contour>
	</outline>
</glyph>
<glyph name="E" format="2">
	<advance width="647"/>
	<unicode hex="0045"/>
	<anchor x="526" y="10" name="ogonek"/>
	<anchor x="317" y="825" name="top"/>
	<anchor x="32" y="825" name="topleft"/>
	<anchor x="282" y="0" name="bottom"/>
	<outline>
		<contour>
			<point x="539" y="825" type="line"/>
			<point x="84" y="825" type="line"/>
			<point x="84" y="0" type="line"/>
			<point x="539" y="0" type="line"/>
			<point x="539" y="40" type="line"/>
			<point x="122" y="40" type="line"/>
			<point x="122" y="394" type="line"/>
			<point x="527" y="394" type="line"/>
			<point x="527" y="434" type="line"/>
			<point x="122" y="434" type="line"/>
			<point x="122" y="785" type="line"/>
			<point x="539" y="785" type="line"/>
		</contour>
	</outline>
</glyph>
<glyph name="F" format="2">
	<advance width="542"/>
	<unicode hex="0046"/>
	<anchor x="259" y="825" name="top"/>
	<anchor x="259" y="0" name="bottom"/>
	<outline>
		<contour>
			<point x="469" y="825" type="line"/>
			<point x="79" y="825" type="line"/>
			<point x="79" y="0" type="line"/>
			<point x="117" y="0" type="line"/>
			<point x="117" y="394" type="line"/>
			<point x="447" y="394" type="line"/>
			<point x="447" y="434" type="line"/>
			<point x="117" y="434" type="line"/>
			<point x="117" y="785" type="line"/>
			<point x="469" y="785" type="line"/>
		</contour>
	</outline>
</glyph>
<glyph name="G" format="2">
	<advance width="882"/>
	<unicode hex="0047"/>
	<anchor x="429" y="825" name="top"/>
	<anchor x="441" y="0" name="bottom"/>
	<outline>
		<contour>
			<point x="826" y="437" type="line"/>
			<point x="413" y="437" type="line"/>
			<point x="413" y="398" type="line"/>
			<point x="786" y="398" type="line"/>
			<point x="779" y="195"/>
			<point x="632" y="25"/>
			<point x="429" y="25" type="curve"/>
			<point x="221" y="25"/>
			<point x="70" y="203"/>
			<point x="70" y="413" type="curve"/>
			<point x="70" y="623"/>
			<point x="221" y="800"/>
			<point x="429" y="800" type="curve"/>
			<point x="544" y="800"/>
			<point x="641" y="746"/>
			<point x="705" y="662" type="curve"/>
			<point x="734" y="687" type="line"/>
			<point x="663" y="780"/>
			<point x="554" y="840"/>
			<point x="429" y="840" type="curve"/>
			<point x="202" y="840"/>
			<point x="30" y="644"/>
			<point x="30" y="413" type="curve"/>
			<point x="30" y="182"/>
			<point x="202" y="-15"/>
			<point x="429" y="-15" type="curve"/>
			<point x="651" y="-15"/>
			<point x="826" y="174"/>
			<point x="826" y="398" type="curve"/>
		</contour>
	</outline>
</glyph>
<glyph name="H" format="2">
	<advance width="757"/>
	<unicode hex="0048"/>
	<anchor x="366" y="516" name="center"/>
	<anchor x="366" y="825" name="top"/>
	<anchor x="74" y="825" name="topleft"/>
	<anchor x="366" y="-103" name="bottom"/>
	<outline>
		<contour>
			<point x="122" y="394" type="line"/>
			<point x="611" y="394" type="line"/>
			<point x="611" y="0" type="line"/>
			<point x="649" y="0" type="line"/>
			<point x="649" y="825" type="line"/>
			<point x="611" y="825" type="line"/>
			<point x="611" y="434" type="line"/>
			<point x="122" y="434" type="line"/>
			<point x="122" y="825" type="line"/>
			<point x="84" y="825" type="line"/>
			<point x="84" y="0" type="line"/>
			<point x="122" y="0" type="line"/>
		</contour>
	</outline>
</glyph>
<glyph name="I" format="2">
	<advance width="253"/>
	<unicode hex="0049"/>
	<anchor x="187" y="10" name="ogonek"/>
	<anchor x="114" y="825" name="top"/>
	<anchor x="42" y="825" name="topleft"/>
	<anchor x="114" y="0" name="bottom"/>
	<outline>
		<contour>
			<point x="135" y="825" type="line"/>
			<point x="95" y="825" type="line"/>
			<point x="95" y="0" type="line"/>
			<point x="135" y="0" type="line"/>
		</contour>
	</outline>
</glyph>
<glyph name="J" format="2">
	<advance width="464"/>
	<unicode hex="004A"/>
	<anchor x="364" y="825" name="top"/>
	<anchor x="230" y="0" name="bottom"/>
	<outline>
		<contour>
			<point x="384" y="248" type="curve"/>
			<point x="384" y="248" type="line"/>
			<point x="384" y="825" type="line"/>
			<point x="345" y="825" type="line"/>
			<point x="345" y="241" type="line" smooth="yes"/>
			<point x="345" y="127"/>
			<point x="310" y="24"/>
			<point x="181" y="24" type="curve"/>
			<point x="73" y="24"/>
			<point x="35" y="82"/>
			<point x="23" y="106" type="curve"/>
			<point x="-4" y="74" type="line"/>
			<point x="6" y="52"/>
			<point x="58" y="-15"/>
			<point x="181" y="-15" type="curve"/>
			<point x="326" y="-15"/>
			<point x="384" y="86"/>
		</contour>
	</outline>
</glyph>
<glyph name="K" format="2">
	<advance width="556"/>
	<unicode hex="004B"/>
	<anchor x="286" y="825" name="top"/>
	<anchor x="286" y="0" name="bottom"/>
	<outline>
		<contour>
			<point x="535" y="0" type="line"/>
			<point x="178" y="409" type="line"/>
			<point x="515" y="825" type="line"/>
			<point x="467" y="825" type="line"/>
			<point x="134" y="413" type="line"/>
			<point x="134" y="825" type="line"/>
			<point x="94" y="825" type="line"/>
			<point x="94" y="0" type="line"/>
			<point x="134" y="0" type="line"/>
			<point x="134" y="398" type="line"/>
			<point x="486" y="0" type="line"/>
		</contour>
	</outline>
</glyph>
<glyph name="L" format="2">
	<advance width="540"/>
	<unicode hex="004C"/>
	<anchor x="82" y="516" name="center"/>
	<anchor x="258" y="825" name="top"/>
	<anchor x="477" y="825" name="topright"/>
	<anchor x="271" y="0" name="bottom"/>
	<outline>
		<contour>
			<point x="118" y="825" type="line"/>
			<point x="79" y="825" type="line"/>
			<point x="79" y="0" type="line"/>
			<point x="464" y="0" type="line"/>
			<point x="464" y="40" type="line"/>
			<point x="118" y="40" type="line"/>
		</contour>
	</outline>
</glyph>
<glyph name="M" format="2">
	<advance width="833"/>
	<unicode hex="004D"/>
	<anchor x="404" y="825" name="top"/>
	<anchor x="404" y="0" name="bottom"/>
	<outline>
		<contour>
			<point x="719" y="0" type="line"/>
			<point x="719" y="825" type="line"/>
			<point x="680" y="825" type="line"/>
			<point x="404" y="95" type="line"/>
			<point x="399" y="73" type="line"/>
			<point x="394" y="95" type="line"/>
			<point x="119" y="825" type="line"/>
			<point x="79" y="825" type="line"/>
			<point x="79" y="0" type="line"/>
			<point x="118" y="0" type="line"/>
			<point x="118" y="688" type="line"/>
			<point x="115" y="740" type="line"/>
			<point x="129" y="688" type="line"/>
			<point x="379" y="30" type="line"/>
			<point x="419" y="30" type="line"/>
			<point x="669" y="688" type="line"/>
			<point x="683" y="740" type="line"/>
			<point x="680" y="688" type="line"/>
			<point x="680" y="0" type="line"/>
		</contour>
	</outline>
</glyph>
<glyph name="N" format="2">
	<advance width="800"/>
	<unicode hex="004E"/>
	<anchor x="413" y="825" name="top"/>
	<anchor x="413" y="0" name="bottom"/>
	<outline>
		<contour>
			<point x="123" y="783" type="line"/>
			<point x="122" y="783" type="line"/>
			<point x="629" y="0" type="line"/>
			<point x="692" y="0" type="line"/>
			<point x="692" y="825" type="line"/>
			<point x="653" y="825" type="line"/>
			<point x="653" y="42" type="line"/>
			<point x="654" y="42" type="line"/>
			<point x="147" y="825" type="line"/>
			<point x="84" y="825" type="line"/>
			<point x="84" y="0" type="line"/>
			<point x="123" y="0" type="line"/>
		</contour>
	</outline>
</glyph>
<glyph name="O" format="2">
	<advance width="882"/>
	<unicode hex="004F"/>
	<anchor x="429" y="516" name="center"/>
	<anchor x="638" y="10" name="ogonek"/>
	<anchor x="429" y="825" name="top"/>
	<anchor x="672" y="751" name="topright"/>
	<anchor x="47" y="825" name="topleft"/>
	<anchor x="429" y="-103" name="bottom"/>
	<outline>
		<contour>
			<point x="70" y="413" type="curve"/>
			<point x="70" y="413" type="line"/>
			<point x="70" y="633"/>
			<point x="221" y="800"/>
			<point x="429" y="800" type="curve"/>
			<point x="637" y="800"/>
			<point x="786" y="633"/>
			<point x="786" y="413" type="curve"/>
			<point x="786" y="193"/>
			<point x="637" y="25"/>
			<point x="429" y="25" type="curve"/>
			<point x="221" y="25"/>
			<point x="70" y="193"/>
		</contour>
		<contour>
			<point x="30" y="413" type="curve"/>
			<point x="30" y="413" type="line"/>
			<point x="30" y="172"/>
			<point x="202" y="-15"/>
			<point x="429" y="-15" type="curve"/>
			<point x="656" y="-15"/>
			<point x="826" y="172"/>
			<point x="826" y="413" type="curve"/>
			<point x="826" y="654"/>
			<point x="656" y="840"/>
			<point x="429" y="840" type="curve"/>
			<point x="202" y="840"/>
			<point x="30" y="654"/>
		</contour>
	</outline>
</glyph>
<glyph name="P" format="2">
	<advance width="611"/>
	<unicode hex="0050"/>
	<anchor x="293" y="825" name="top"/>
	<anchor x="293" y="0" name="bottom"/>
	<outline>
		<contour>
			<point x="271" y="825" type="curve"/>
			<point x="94" y="825" type="line"/>
			<point x="94" y="0" type="line"/>
			<point x="133" y="0" type="line"/>
			<point x="133" y="344" type="line"/>
			<point x="271" y="344" type="line" smooth="yes"/>
			<point x="422" y="344"/>
			<point x="541" y="416"/>
			<point x="541" y="589" type="curve"/>
			<point x="541" y="762"/>
			<point x="422" y="825"/>
		</contour>
		<contour>
			<point x="261" y="384" type="curve"/>
			<point x="133" y="384" type="line"/>
			<point x="133" y="785" type="line"/>
			<point x="261" y="785" type="line" smooth="yes"/>
			<point x="392" y="785"/>
			<point x="501" y="742"/>
			<point x="501" y="589" type="curve"/>
			<point x="501" y="436"/>
			<point x="392" y="384"/>
		</contour>
	</outline>
</glyph>
<glyph name="Q" format="2">
	<advance width="862"/>
	<unicode hex="0051"/>
	<outline>
		<contour>
			<point x="665" y="-56" type="curve"/>
			<point x="665" y="-56" type="line"/>
			<point x="574" y="-56"/>
			<point x="514" y="0"/>
			<point x="422" y="0" type="curve"/>
			<point x="349" y="0"/>
			<point x="303" y="-27"/>
			<point x="248" y="-68" type="curve"/>
			<point x="280" y="-103" type="line"/>
			<point x="284" y="-99"/>
			<point x="344" y="-40"/>
			<point x="420" y="-40" type="curve"/>
			<point x="512" y="-40"/>
			<point x="552" y="-98"/>
			<point x="662" y="-98" type="curve"/>
			<point x="748" y="-98"/>
			<point x="793" y="-69"/>
			<point x="810" y="-58" type="curve"/>
			<point x="781" y="-21" type="line"/>
			<point x="778" y="-25"/>
			<point x="737" y="-56"/>
		</contour>
		<component base="O"/>
	</outline>
</glyph>
<glyph name="R" format="2">
	<advance width="654"/>
	<unicode hex="0052"/>
	<anchor x="300" y="825" name="top"/>
	<anchor x="300" y="0" name="bottom"/>
	<outline>
		<contour>
			<point x="334" y="825" type="curve"/>
			<point x="86" y="825" type="line"/>
			<point x="86" y="0" type="line"/>
			<point x="125" y="0" type="line"/>
			<point x="125" y="366" type="line"/>
			<point x="333" y="366" type="line"/>
			<point x="535" y="0" type="line"/>
			<point x="581" y="0" type="line"/>
			<point x="373" y="369" type="line"/>
			<point x="451" y="369"/>
			<point x="569" y="446"/>
			<point x="569" y="596" type="curve"/>
			<point x="569" y="746"/>
			<point x="459" y="825"/>
		</contour>
		<contour>
			<point x="321" y="404" type="curve"/>
			<point x="125" y="404" type="line"/>
			<point x="125" y="785" type="line"/>
			<point x="321" y="785" type="line" smooth="yes"/>
			<point x="446" y="785"/>
			<point x="529" y="726"/>
			<point x="529" y="596" type="curve"/>
			<point x="529" y="466"/>
			<point x="446" y="404"/>
		</contour>
	</outline>
</glyph>
<glyph name="S" format="2">
	<advance width="627"/>
	<unicode hex="0053"/>
	<anchor x="301" y="825" name="top"/>
	<anchor x="301" y="0" name="bottom"/>
	<outline>
		<contour>
			<point x="303" y="840" type="curve"/>
			<point x="303" y="840" type="line"/>
			<point x="170" y="840"/>
			<point x="72" y="762"/>
			<point x="72" y="658" type="curve"/>
			<point x="72" y="550"/>
			<point x="162" y="494"/>
			<point x="279" y="437" type="curve"/>
			<point x="388" y="384"/>
			<point x="512" y="323"/>
			<point x="512" y="204" type="curve"/>
			<point x="512" y="101"/>
			<point x="436" y="25"/>
			<point x="295" y="25" type="curve"/>
			<point x="168" y="25"/>
			<point x="92" y="82"/>
			<point x="70" y="99" type="curve"/>
			<point x="42" y="62" type="line"/>
			<point x="48" y="56"/>
			<point x="156" y="-15"/>
			<point x="292" y="-15" type="curve"/>
			<point x="452" y="-15"/>
			<point x="555" y="79"/>
			<point x="555" y="201" type="curve"/>
			<point x="555" y="348"/>
			<point x="419" y="415"/>
			<point x="311" y="466" type="curve"/>
			<point x="203" y="517"/>
			<point x="115" y="567"/>
			<point x="115" y="657" type="curve"/>
			<point x="115" y="746"/>
			<point x="187" y="800"/>
			<point x="305" y="800" type="curve"/>
			<point x="415" y="800"/>
			<point x="473" y="750"/>
			<point x="492" y="733" type="curve"/>
			<point x="517" y="768" type="line"/>
			<point x="509" y="778"/>
			<point x="436" y="840"/>
		</contour>
	</outline>
</glyph>
<glyph name="T" format="2">
	<advance width="601"/>
	<unicode hex="0054"/>
	<anchor x="288" y="413" name="center"/>
	<anchor x="288" y="0" name="bottom"/>
	<anchor x="288" y="825" name="top"/>
	<outline>
		<contour>
			<point x="23" y="785" type="line"/>
			<point x="268" y="785" type="line"/>
			<point x="268" y="0" type="line"/>
			<point x="308" y="0" type="line"/>
			<point x="308" y="785" type="line"/>
			<point x="553" y="785" type="line"/>
			<point x="553" y="825" type="line"/>
			<point x="23" y="825" type="line"/>
		</contour>
	</outline>
</glyph>
<glyph name="U" format="2">
	<advance width="761"/>
	<unicode hex="0055"/>
	<anchor x="629" y="10" name="ogonek"/>
	<anchor x="371" y="825" name="top"/>
	<anchor x="671" y="825" name="topright"/>
	<anchor x="371" y="0" name="bottom"/>
	<outline>
		<contour>
			<point x="671" y="825" type="line"/>
			<point x="632" y="825" type="line"/>
			<point x="632" y="310" type="line" smooth="yes"/>
			<point x="632" y="139"/>
			<point x="515" y="25"/>
			<point x="371" y="25" type="curve"/>
			<point x="227" y="25"/>
			<point x="109" y="139"/>
			<point x="109" y="310" type="curve"/>
			<point x="109" y="825" type="line"/>
			<point x="70" y="825" type="line"/>
			<point x="70" y="308" type="line" smooth="yes"/>
			<point x="70" y="104"/>
			<point x="208" y="-15"/>
			<point x="371" y="-15" type="curve"/>
			<point x="534" y="-15"/>
			<point x="671" y="104"/>
			<point x="671" y="308" type="curve"/>
		</contour>
	</outline>
</glyph>
<glyph name="V" format="2">
	<advance width="729"/>
	<unicode hex="0056"/>
	<anchor x="352" y="825" name="top"/>
	<anchor x="352" y="0" name="bottom"/>
	<outline>
		<contour>
			<point x="325" y="0" type="line"/>
			<point x="379" y="0" type="line"/>
			<point x="689" y="825" type="line"/>
			<point x="645" y="825" type="line"/>
			<point x="352" y="38" type="line"/>
			<point x="60" y="825" type="line"/>
			<point x="16" y="825" type="line"/>
		</contour>
	</outline>
</glyph>
<glyph name="W" format="2">
	<advance width="933"/>
	<unicode hex="0057"/>
	<anchor x="454" y="825" name="top"/>
	<anchor x="454" y="0" name="bottom"/>
	<outline>
		<contour>
			<point x="647" y="0" type="line"/>
			<point x="705" y="0" type="line"/>
			<point x="866" y="825" type="line"/>
			<point x="823" y="825" type="line"/>
			<point x="675" y="49" type="line"/>
			<point x="676" y="49" type="line"/>
			<point x="477" y="825" type="line"/>
			<point x="417" y="825" type="line"/>
			<point x="218" y="49" type="line"/>
			<point x="219" y="49" type="line"/>
			<point x="71" y="825" type="line"/>
			<point x="28" y="825" type="line"/>
			<point x="189" y="0" type="line"/>
			<point x="247" y="0" type="line"/>
			<point x="452" y="806" type="line"/>
			<point x="442" y="806" type="line"/>
		</contour>
	</outline>
</glyph>
<glyph name="X" format="2">
	<advance width="685"/>
	<unicode hex="0058"/>
	<anchor x="330" y="825" name="top"/>
	<anchor x="330" y="0" name="bottom"/>
	<outline>
		<contour>
			<point x="655" y="0" type="line"/>
			<point x="362" y="444" type="line"/>
			<point x="625" y="825" type="line"/>
			<point x="577" y="825" type="line"/>
			<point x="332" y="475" type="line"/>
			<point x="84" y="825" type="line"/>
			<point x="36" y="825" type="line"/>
			<point x="302" y="444" type="line"/>
			<point x="6" y="0" type="line"/>
			<point x="54" y="0" type="line"/>
			<point x="332" y="413" type="line"/>
			<point x="607" y="0" type="line"/>
		</contour>
	</outline>
</glyph>
<glyph name="Y" format="2">
	<advance width="641"/>
	<unicode hex="0059"/>
	<anchor x="308" y="825" name="top"/>
	<anchor x="308" y="0" name="bottom"/>
	<anchor x="47" y="825" name="topleft"/>
	<outline>
		<contour>
			<point x="17" y="825" type="line"/>
			<point x="288" y="297" type="line"/>
			<point x="288" y="0" type="line"/>
			<point x="328" y="0" type="line"/>
			<point x="328" y="297" type="line"/>
			<point x="598" y="825" type="line"/>
			<point x="552" y="825" type="line"/>
			<point x="308" y="346" type="line"/>
			<point x="63" y="825" type="line"/>
		</contour>
	</outline>
</glyph>
<glyph name="Z" format="2">
	<advance width="692"/>
	<unicode hex="005A"/>
	<anchor x="334" y="825" name="top"/>
	<anchor x="334" y="0" name="bottom"/>
	<outline>
		<contour>
			<point x="627" y="825" type="line"/>
			<point x="98" y="825" type="line"/>
			<point x="98" y="785" type="line"/>
			<point x="554" y="785" type="line"/>
			<point x="40" y="0" type="line"/>
			<point x="600" y="0" type="line"/>
			<point x="600" y="40" type="line"/>
			<point x="117" y="40" type="line"/>
		</contour>
	</outline>
</glyph>
<glyph name="bracketleft" format="2">
	<advance width="407"/>
	<unicode hex="005B"/>
	<outline>
		<contour>
			<point x="80" y="860" type="line"/>
			<point x="80" y="-260" type="line"/>
			<point x="302" y="-260" type="line"/>
			<point x="302" y="-220" type="line"/>
			<point x="120" y="-220" type="line"/>
			<point x="120" y="820" type="line"/>
			<point x="302" y="820" type="line"/>
			<point x="302" y="860" type="line"/>
		</contour>
	</outline>
</glyph>
<glyph name="backslash" format="2">
	<advance width="576"/>
	<unicode hex="005C"/>
	<outline>
		<contour>
			<point x="462" y="0" type="line"/>
			<point x="508" y="0" type="line"/>
			<point x="96" y="860" type="line"/>
			<point x="50" y="860" type="line"/>
		</contour>
	</outline>
</glyph>
<glyph name="asciicircum" format="2">
	<advance width="541"/>
	<unicode hex="005E"/>
	<outline>
		<contour>
			<point x="426" y="605" type="line"/>
			<point x="474" y="605" type="line"/>
			<point x="280" y="840" type="line"/>
			<point x="238" y="840" type="line"/>
			<point x="43" y="605" type="line"/>
			<point x="92" y="605" type="line"/>
			<point x="259" y="814" type="line"/>
		</contour>
	</outline>
</glyph>
<glyph name="underscore" format="2">
	<advance width="498"/>
	<unicode hex="005F"/>
	<outline>
		<contour>
			<point x="17" y="-40" type="line"/>
			<point x="17" y="-79" type="line"/>
			<point x="477" y="-79" type="line"/>
			<point x="477" y="-40" type="line"/>
		</contour>
	</outline>
</glyph>
<glyph name="grave" format="2">
	<advance width="433"/>
	<unicode hex="0060"/>
	<outline>
		<contour>
			<point x="106" y="751" type="line"/>
			<point x="299" y="626" type="line"/>
			<point x="323" y="657" type="line"/>
			<point x="143" y="798" type="line"/>
		</contour>
	</outline>
</glyph>
<glyph name="a" format="2">
	<advance width="630"/>
	<unicode hex="0061"/>
	<anchor x="543" y="10" name="ogonek"/>
	<anchor x="308" y="0" name="bottom"/>
	<anchor x="308" y="513" name="top"/>
	<outline>
		<contour>
			<point x="501" y="114" type="curve"/>
			<point x="501" y="0" type="line"/>
			<point x="540" y="0" type="line"/>
			<point x="540" y="513" type="line"/>
			<point x="501" y="513" type="line"/>
			<point x="501" y="399" type="line"/>
			<point x="497" y="438"/>
			<point x="418" y="528"/>
			<point x="295" y="528" type="curve"/>
			<point x="158" y="528"/>
			<point x="36" y="431"/>
			<point x="36" y="256" type="curve"/>
			<point x="36" y="81"/>
			<point x="158" y="-15"/>
			<point x="295" y="-15" type="curve"/>
			<point x="419" y="-15"/>
			<point x="494" y="78"/>
		</contour>
		<contour>
			<point x="76" y="256" type="curve"/>
			<point x="76" y="256" type="line"/>
			<point x="76" y="401"/>
			<point x="184" y="488"/>
			<point x="291" y="488" type="curve"/>
			<point x="410" y="488"/>
			<point x="499" y="398"/>
			<point x="499" y="256" type="curve"/>
			<point x="499" y="114"/>
			<point x="410" y="25"/>
			<point x="291" y="25" type="curve"/>
			<point x="184" y="25"/>
			<point x="76" y="111"/>
		</contour>
	</outline>
</glyph>
<glyph name="b" format="2">
	<advance width="618"/>
	<unicode hex="0062"/>
	<anchor x="297" y="900" name="top"/>
	<anchor x="297" y="0" name="bottom"/>
	<outline>
		<contour>
			<point x="75" y="860" type="line"/>
			<point x="75" y="0" type="line"/>
			<point x="115" y="0" type="line"/>
			<point x="115" y="114" type="line"/>
			<point x="119" y="76"/>
			<point x="205" y="-15"/>
			<point x="331" y="-15" type="curve"/>
			<point x="468" y="-15"/>
			<point x="580" y="81"/>
			<point x="580" y="256" type="curve"/>
			<point x="580" y="431"/>
			<point x="468" y="528"/>
			<point x="331" y="528" type="curve"/>
			<point x="206" y="528"/>
			<point x="121" y="441"/>
			<point x="117" y="399" type="curve"/>
			<point x="117" y="860" type="line"/>
		</contour>
		<contour>
			<point x="539" y="256" type="curve"/>
			<point x="539" y="256" type="line"/>
			<point x="539" y="111"/>
			<point x="442" y="25"/>
			<point x="335" y="25" type="curve"/>
			<point x="216" y="25"/>
			<point x="117" y="114"/>
			<point x="117" y="256" type="curve"/>
			<point x="117" y="398"/>
			<point x="216" y="488"/>
			<point x="335" y="488" type="curve"/>
			<point x="442" y="488"/>
			<point x="539" y="401"/>
		</contour>
	</outline>
</glyph>
<glyph name="c" format="2">
	<advance width="507"/>
	<unicode hex="0063"/>
	<anchor x="241" y="513" name="top"/>
	<anchor x="241" y="0" name="bottom"/>
	<outline>
		<contour>
			<point x="288" y="25" type="curve"/>
			<point x="288" y="25" type="line"/>
			<point x="191" y="25"/>
			<point x="83" y="107"/>
			<point x="83" y="257" type="curve"/>
			<point x="83" y="407"/>
			<point x="191" y="488"/>
			<point x="288" y="488" type="curve"/>
			<point x="368" y="488"/>
			<point x="412" y="447"/>
			<point x="423" y="436" type="curve"/>
			<point x="447" y="471" type="line"/>
			<point x="436" y="482"/>
			<point x="375" y="528"/>
			<point x="283" y="528" type="curve"/>
			<point x="173" y="528"/>
			<point x="43" y="440"/>
			<point x="43" y="257" type="curve"/>
			<point x="43" y="74"/>
			<point x="173" y="-15"/>
			<point x="283" y="-15" type="curve"/>
			<point x="375" y="-15"/>
			<point x="444" y="26"/>
			<point x="451" y="33" type="curve"/>
			<point x="427" y="68" type="line"/>
			<point x="417" y="60"/>
			<point x="368" y="25"/>
		</contour>
	</outline>
</glyph>
<glyph name="e" format="2">
	<advance width="574"/>
	<unicode hex="0065"/>
	<anchor x="491" y="10" name="ogonek"/>
	<anchor x="279" y="0" name="bottom"/>
	<anchor x="279" y="513" name="top"/>
	<outline>
		<contour>
			<point x="79" y="260" type="curve"/>
			<point x="79" y="260" type="line"/>
			<point x="512" y="260" type="line"/>
			<point x="512" y="266"/>
			<point x="513" y="274"/>
			<point x="513" y="281" type="curve"/>
			<point x="513" y="424"/>
			<point x="422" y="528"/>
			<point x="283" y="528" type="curve"/>
			<point x="127" y="528"/>
			<point x="36" y="413"/>
			<point x="36" y="263" type="curve"/>
			<point x="36" y="111"/>
			<point x="123" y="-15"/>
			<point x="285" y="-15" type="curve"/>
			<point x="391" y="-15"/>
			<point x="453" y="27"/>
			<point x="504" y="109" type="curve"/>
			<point x="467" y="134" type="line"/>
			<point x="450" y="95"/>
			<point x="400" y="24"/>
			<point x="287" y="24" type="curve"/>
			<point x="145" y="24"/>
			<point x="79" y="139"/>
		</contour>
		<contour>
			<point x="469" y="300" type="curve"/>
			<point x="469" y="300" type="line"/>
			<point x="82" y="300" type="line"/>
			<point x="89" y="385"/>
			<point x="135" y="489"/>
			<point x="283" y="489" type="curve"/>
			<point x="423" y="489"/>
			<point x="466" y="381"/>
		</contour>
	</outline>
</glyph>
<glyph name="f" format="2">
	<advance width="381"/>
	<unicode hex="0066"/>
	<anchor x="178" y="900" name="top"/>
	<anchor x="178" y="0" name="bottom"/>
	<outline>
		<contour>
			<point x="143" y="513" type="line"/>
			<point x="21" y="513" type="line"/>
			<point x="21" y="474" type="line"/>
			<point x="143" y="474" type="line"/>
			<point x="143" y="0" type="line"/>
			<point x="182" y="0" type="line"/>
			<point x="182" y="474" type="line"/>
			<point x="344" y="474" type="line"/>
			<point x="344" y="513" type="line"/>
			<point x="182" y="513" type="line"/>
			<point x="182" y="659" type="line" smooth="yes"/>
			<point x="182" y="811"/>
			<point x="239" y="837"/>
			<point x="291" y="837" type="curve"/>
			<point x="339" y="837"/>
			<point x="364" y="817"/>
			<point x="369" y="813" type="curve"/>
			<point x="388" y="848" type="line"/>
			<point x="384" y="851"/>
			<point x="352" y="875"/>
			<point x="295" y="875" type="curve"/>
			<point x="223" y="875"/>
			<point x="143" y="829"/>
			<point x="143" y="667" type="curve"/>
		</contour>
	</outline>
</glyph>
<glyph name="g" format="2">
	<advance width="636"/>
	<unicode hex="0067"/>
	<anchor x="327" y="513" name="top"/>
	<anchor x="327" y="-260" name="bottom"/>
	<outline>
		<contour>
			<point x="301" y="-274" type="curve"/>
			<point x="301" y="-274" type="line"/>
			<point x="433" y="-274"/>
			<point x="540" y="-183"/>
			<point x="540" y="-15" type="curve"/>
			<point x="540" y="9" type="line"/>
			<point x="501" y="9" type="line"/>
			<point x="501" y="-11" type="line" smooth="yes"/>
			<point x="501" y="-129"/>
			<point x="433" y="-233"/>
			<point x="301" y="-233" type="curve"/>
			<point x="169" y="-233"/>
			<point x="129" y="-179"/>
			<point x="109" y="-147" type="curve"/>
			<point x="71" y="-175" type="line"/>
			<point x="100" y="-222"/>
			<point x="169" y="-274"/>
		</contour>
		<component base="a"/>
	</outline>
</glyph>
<glyph name="h" format="2">
	<advance width="606"/>
	<unicode hex="0068"/>
	<anchor x="281" y="450" name="center"/>
	<anchor x="281" y="0" name="bottom"/>
	<anchor x="281" y="900" name="top"/>
	<outline>
		<contour>
			<point x="311" y="528" type="curve"/>
			<point x="311" y="528" type="line"/>
			<point x="214" y="528"/>
			<point x="134" y="453"/>
			<point x="127" y="408" type="curve"/>
			<point x="127" y="860" type="line"/>
			<point x="85" y="860" type="line"/>
			<point x="85" y="0" type="line"/>
			<point x="127" y="0" type="line"/>
			<point x="127" y="290" type="line" smooth="yes"/>
			<point x="127" y="401"/>
			<point x="220" y="488"/>
			<point x="310" y="488" type="curve"/>
			<point x="400" y="488"/>
			<point x="465" y="439"/>
			<point x="465" y="313" type="curve"/>
			<point x="465" y="0" type="line"/>
			<point x="506" y="0" type="line"/>
			<point x="506" y="326" type="line" smooth="yes"/>
			<point x="506" y="469"/>
			<point x="405" y="528"/>
		</contour>
	</outline>
</glyph>
<glyph name="i" format="2">
	<advance width="253"/>
	<unicode hex="0069"/>
	<anchor x="114" y="0" name="bottom"/>
	<outline>
		<contour>
			<point x="93" y="513" type="line"/>
			<point x="93" y="0" type="line"/>
			<point x="133" y="0" type="line"/>
			<point x="133" y="513" type="line"/>
		</contour>
		<contour>
			<point x="114" y="748" type="curve"/>
			<point x="114" y="748" type="line"/>
			<point x="137" y="748"/>
			<point x="156" y="766"/>
			<point x="156" y="789" type="curve"/>
			<point x="156" y="812"/>
			<point x="136" y="830"/>
			<point x="114" y="830" type="curve"/>
			<point x="92" y="830"/>
			<point x="73" y="812"/>
			<point x="73" y="789" type="curve"/>
			<point x="73" y="766"/>
			<point x="91" y="748"/>
		</contour>
	</outline>
</glyph>
<glyph name="j" format="2">
	<advance width="267"/>
	<unicode hex="006A"/>
	<outline>
		<contour>
			<point x="32" y="-275" type="curve"/>
			<point x="32" y="-275" type="line"/>
			<point x="127" y="-275"/>
			<point x="154" y="-202"/>
			<point x="154" y="-79" type="curve"/>
			<point x="154" y="513" type="line"/>
			<point x="114" y="513" type="line"/>
			<point x="114" y="-55" type="line" smooth="yes"/>
			<point x="114" y="-162"/>
			<point x="105" y="-235"/>
			<point x="31" y="-235" type="curve"/>
			<point x="-4" y="-235"/>
			<point x="-15" y="-226"/>
			<point x="-24" y="-218" type="curve"/>
			<point x="-49" y="-252" type="line"/>
			<point x="-38" y="-262"/>
			<point x="-8" y="-275"/>
		</contour>
		<contour>
			<point x="138" y="748" type="curve"/>
			<point x="138" y="748" type="line"/>
			<point x="161" y="748"/>
			<point x="179" y="766"/>
			<point x="179" y="789" type="curve"/>
			<point x="179" y="811"/>
			<point x="161" y="830"/>
			<point x="138" y="830" type="curve"/>
			<point x="115" y="830"/>
			<point x="97" y="811"/>
			<point x="97" y="789" type="curve"/>
			<point x="97" y="766"/>
			<point x="115" y="748"/>
		</contour>
	</outline>
</glyph>
<glyph name="k" format="2">
	<advance width="452"/>
	<unicode hex="006B"/>
	<anchor x="210" y="900" name="top"/>
	<anchor x="210" y="0" name="bottom"/>
	<outline>
		<contour>
			<point x="420" y="513" type="line"/>
			<point x="360" y="513" type="line"/>
			<point x="100" y="289" type="line"/>
			<point x="100" y="860" type="line"/>
			<point x="60" y="860" type="line"/>
			<point x="60" y="0" type="line"/>
			<point x="100" y="0" type="line"/>
			<point x="100" y="245" type="line"/>
			<point x="372" y="0" type="line"/>
			<point x="432" y="0" type="line"/>
			<point x="136" y="269" type="line"/>
		</contour>
	</outline>
</glyph>
<glyph name="l" format="2">
	<advance width="233"/>
	<unicode hex="006C"/>
	<anchor x="104" y="563" name="center"/>
	<anchor x="104" y="900" name="top"/>
	<anchor x="165" y="900" name="topright"/>
	<anchor x="104" y="0" name="bottom"/>
	<outline>
		<contour>
			<point x="84" y="0" type="line"/>
			<point x="125" y="0" type="line"/>
			<point x="125" y="860" type="line"/>
			<point x="84" y="860" type="line"/>
		</contour>
	</outline>
</glyph>
<glyph name="m" format="2">
	<advance width="890"/>
	<unicode hex="006D"/>
	<anchor x="433" y="513" name="top"/>
	<anchor x="433" y="0" name="bottom"/>
	<outline>
		<contour>
			<point x="616" y="528" type="curve"/>
			<point x="616" y="528" type="line"/>
			<point x="521" y="528"/>
			<point x="455" y="457"/>
			<point x="437" y="395" type="curve"/>
			<point x="431" y="442"/>
			<point x="385" y="528"/>
			<point x="290" y="528" type="curve"/>
			<point x="198" y="528"/>
			<point x="139" y="469"/>
			<point x="127" y="430" type="curve"/>
			<point x="127" y="513" type="line"/>
			<point x="87" y="513" type="line"/>
			<point x="87" y="0" type="line"/>
			<point x="127" y="0" type="line"/>
			<point x="127" y="280" type="line" smooth="yes"/>
			<point x="127" y="435"/>
			<point x="209" y="487"/>
			<point x="281" y="487" type="curve"/>
			<point x="359" y="487"/>
			<point x="415" y="425"/>
			<point x="415" y="280" type="curve"/>
			<point x="415" y="0" type="line"/>
			<point x="455" y="0" type="line"/>
			<point x="455" y="280" type="line" smooth="yes"/>
			<point x="455" y="431"/>
			<point x="541" y="487"/>
			<point x="613" y="487" type="curve"/>
			<point x="710" y="487"/>
			<point x="744" y="425"/>
			<point x="744" y="280" type="curve"/>
			<point x="744" y="0" type="line"/>
			<point x="784" y="0" type="line"/>
			<point x="784" y="296" type="line" smooth="yes"/>
			<point x="784" y="453"/>
			<point x="729" y="528"/>
		</contour>
	</outline>
</glyph>
<glyph name="n" format="2">
	<advance width="596"/>
	<unicode hex="006E"/>
	<anchor x="276" y="513" name="top"/>
	<anchor x="276" y="0" name="bottom"/>
	<outline>
		<contour>
			<point x="308" y="528" type="curve"/>
			<point x="308" y="528" type="line"/>
			<point x="212" y="528"/>
			<point x="131" y="453"/>
			<point x="124" y="408" type="curve"/>
			<point x="124" y="513" type="line"/>
			<point x="84" y="513" type="line"/>
			<point x="84" y="0" type="line"/>
			<point x="124" y="0" type="line"/>
			<point x="124" y="290" type="line" smooth="yes"/>
			<point x="124" y="401"/>
			<point x="217" y="488"/>
			<point x="307" y="488" type="curve"/>
			<point x="397" y="488"/>
			<point x="462" y="439"/>
			<point x="462" y="313" type="curve"/>
			<point x="462" y="0" type="line"/>
			<point x="503" y="0" type="line"/>
			<point x="503" y="326" type="line" smooth="yes"/>
			<point x="503" y="469"/>
			<point x="402" y="528"/>
		</contour>
	</outline>
</glyph>
<glyph name="o" format="2">
	<advance width="611"/>
	<unicode hex="006F"/>
	<anchor x="293" y="321" name="center"/>
	<anchor x="514" y="10" name="ogonek"/>
	<anchor x="293" y="513" name="top"/>
	<anchor x="424" y="488" name="topright"/>
	<anchor x="293" y="-64" name="bottom"/>
	<outline>
		<contour>
			<point x="294" y="-15" type="curve"/>
			<point x="294" y="-15" type="line"/>
			<point x="444" y="-15"/>
			<point x="550" y="105"/>
			<point x="550" y="255" type="curve"/>
			<point x="550" y="405"/>
			<point x="444" y="528"/>
			<point x="294" y="528" type="curve"/>
			<point x="144" y="528"/>
			<point x="36" y="405"/>
			<point x="36" y="255" type="curve"/>
			<point x="36" y="105"/>
			<point x="144" y="-15"/>
		</contour>
		<contour>
			<point x="294" y="25" type="curve"/>
			<point x="294" y="25" type="line"/>
			<point x="164" y="25"/>
			<point x="76" y="125"/>
			<point x="76" y="255" type="curve"/>
			<point x="76" y="385"/>
			<point x="164" y="488"/>
			<point x="294" y="488" type="curve"/>
			<point x="424" y="488"/>
			<point x="510" y="385"/>
			<point x="510" y="255" type="curve"/>
			<point x="510" y="125"/>
			<point x="424" y="25"/>
		</contour>
	</outline>
</glyph>
<glyph name="p" format="2">
	<advance width="638"/>
	<unicode hex="0070"/>
	<anchor x="307" y="513" name="top"/>
	<anchor x="307" y="0" name="bottom"/>
	<outline>
		<contour>
			<point x="81" y="-260" type="line"/>
			<point x="122" y="-260" type="line"/>
			<point x="122" y="114" type="line"/>
			<point x="126" y="76"/>
			<point x="211" y="-15"/>
			<point x="337" y="-15" type="curve"/>
			<point x="474" y="-15"/>
			<point x="587" y="81"/>
			<point x="587" y="256" type="curve"/>
			<point x="587" y="431"/>
			<point x="474" y="528"/>
			<point x="337" y="528" type="curve"/>
			<point x="212" y="528"/>
			<point x="128" y="441"/>
			<point x="124" y="399" type="curve"/>
			<point x="124" y="513" type="line"/>
			<point x="81" y="513" type="line"/>
		</contour>
		<contour>
			<point x="546" y="256" type="curve"/>
			<point x="546" y="256" type="line"/>
			<point x="546" y="111"/>
			<point x="448" y="25"/>
			<point x="341" y="25" type="curve"/>
			<point x="222" y="25"/>
			<point x="124" y="114"/>
			<point x="124" y="256" type="curve"/>
			<point x="124" y="398"/>
			<point x="222" y="488"/>
			<point x="341" y="488" type="curve"/>
			<point x="448" y="488"/>
			<point x="546" y="401"/>
		</contour>
	</outline>
</glyph>
<glyph name="r" format="2">
	<advance width="388"/>
	<unicode hex="0072"/>
	<anchor x="198" y="513" name="top"/>
	<anchor x="198" y="0" name="bottom"/>
	<outline>
		<contour>
			<point x="88" y="0" type="line"/>
			<point x="127" y="0" type="line"/>
			<point x="127" y="304" type="line" smooth="yes"/>
			<point x="127" y="375"/>
			<point x="187" y="488"/>
			<point x="275" y="488" type="curve"/>
			<point x="317" y="488"/>
			<point x="347" y="475"/>
			<point x="359" y="466" type="curve"/>
			<point x="378" y="502" type="line"/>
			<point x="366" y="513"/>
			<point x="331" y="528"/>
			<point x="283" y="528" type="curve"/>
			<point x="190" y="528"/>
			<point x="127" y="450"/>
			<point x="124" y="417" type="curve"/>
			<point x="127" y="417" type="line"/>
			<point x="127" y="513" type="line"/>
			<point x="88" y="513" type="line"/>
		</contour>
	</outline>
</glyph>
<glyph name="s" format="2">
	<advance width="474"/>
	<unicode hex="0073"/>
	<anchor x="225" y="513" name="top"/>
	<anchor x="225" y="0" name="bottom"/>
	<outline>
		<contour>
			<point x="237" y="528" type="curve"/>
			<point x="237" y="528" type="line"/>
			<point x="140" y="528"/>
			<point x="61" y="474"/>
			<point x="61" y="397" type="curve"/>
			<point x="61" y="313"/>
			<point x="132" y="274"/>
			<point x="221" y="251" type="curve"/>
			<point x="291" y="233"/>
			<point x="360" y="210"/>
			<point x="360" y="136" type="curve"/>
			<point x="360" y="70"/>
			<point x="297" y="25"/>
			<point x="213" y="25" type="curve"/>
			<point x="144" y="25"/>
			<point x="91" y="55"/>
			<point x="70" y="78" type="curve"/>
			<point x="41" y="41" type="line"/>
			<point x="68" y="17"/>
			<point x="133" y="-15"/>
			<point x="210" y="-15" type="curve"/>
			<point x="317" y="-15"/>
			<point x="403" y="36"/>
			<point x="403" y="136" type="curve"/>
			<point x="403" y="230"/>
			<point x="336" y="262"/>
			<point x="244" y="286" type="curve"/>
			<point x="161" y="308"/>
			<point x="104" y="339"/>
			<point x="104" y="396" type="curve"/>
			<point x="104" y="455"/>
			<point x="163" y="488"/>
			<point x="237" y="488" type="curve"/>
			<point x="292" y="488"/>
			<point x="338" y="464"/>
			<point x="357" y="446" type="curve"/>
			<point x="384" y="479" type="line"/>
			<point x="358" y="500"/>
			<point x="300" y="528"/>
		</contour>
	</outline>
</glyph>
<glyph name="t" format="2">
	<advance width="380"/>
	<unicode hex="0074"/>
	<anchor x="165" y="321" name="center"/>
	<anchor x="178" y="678" name="top"/>
	<anchor x="317" y="513" name="topright"/>
	<anchor x="255" y="-5" name="bottom"/>
	<outline>
		<contour>
			<point x="145" y="513" type="line"/>
			<point x="33" y="513" type="line"/>
			<point x="33" y="473" type="line"/>
			<point x="145" y="473" type="line"/>
			<point x="145" y="116" type="line" smooth="yes"/>
			<point x="145" y="24"/>
			<point x="194" y="-15"/>
			<point x="255" y="-15" type="curve"/>
			<point x="307" y="-15"/>
			<point x="335" y="8"/>
			<point x="341" y="15" type="curve"/>
			<point x="317" y="48" type="line"/>
			<point x="314" y="44"/>
			<point x="295" y="25"/>
			<point x="256" y="25" type="curve"/>
			<point x="218" y="25"/>
			<point x="185" y="50"/>
			<point x="185" y="126" type="curve"/>
			<point x="185" y="473" type="line"/>
			<point x="331" y="473" type="line"/>
			<point x="331" y="513" type="line"/>
			<point x="185" y="513" type="line"/>
			<point x="185" y="724" type="line"/>
			<point x="145" y="724" type="line"/>
		</contour>
	</outline>
</glyph>
<glyph name="u" format="2">
	<advance width="601"/>
	<unicode hex="0075"/>
	<anchor x="500" y="10" name="ogonek"/>
	<anchor x="288" y="513" name="top"/>
	<anchor x="503" y="513" name="topright"/>
	<anchor x="288" y="0" name="bottom"/>
	<outline>
		<contour>
			<point x="113" y="237" type="curve"/>
			<point x="113" y="237" type="line"/>
			<point x="113" y="513" type="line"/>
			<point x="73" y="513" type="line"/>
			<point x="73" y="226" type="line" smooth="yes"/>
			<point x="73" y="89"/>
			<point x="150" y="-15"/>
			<point x="288" y="-15" type="curve"/>
			<point x="426" y="-15"/>
			<point x="503" y="89"/>
			<point x="503" y="226" type="curve"/>
			<point x="503" y="513" type="line"/>
			<point x="463" y="513" type="line"/>
			<point x="463" y="237" type="line" smooth="yes"/>
			<point x="463" y="107"/>
			<point x="404" y="25"/>
			<point x="288" y="25" type="curve"/>
			<point x="172" y="25"/>
			<point x="113" y="107"/>
		</contour>
	</outline>
</glyph>
<glyph name="v" format="2">
	<advance width="565"/>
	<unicode hex="0076"/>
	<anchor x="270" y="513" name="top"/>
	<anchor x="270" y="0" name="bottom"/>
	<outline>
		<contour>
			<point x="65" y="513" type="line"/>
			<point x="22" y="513" type="line"/>
			<point x="246" y="0" type="line"/>
			<point x="294" y="0" type="line"/>
			<point x="517" y="513" type="line"/>
			<point x="474" y="513" type="line"/>
			<point x="270" y="40" type="line"/>
		</contour>
	</outline>
</glyph>
<glyph name="w" format="2">
	<advance width="757"/>
	<unicode hex="0077"/>
	<anchor x="366" y="513" name="top"/>
	<anchor x="366" y="0" name="bottom"/>
	<outline>
		<contour>
			<point x="227" y="0" type="line"/>
			<point x="366" y="458" type="line"/>
			<point x="506" y="0" type="line"/>
			<point x="566" y="0" type="line"/>
			<point x="680" y="513" type="line"/>
			<point x="637" y="513" type="line"/>
			<point x="534" y="47" type="line"/>
			<point x="396" y="503" type="line"/>
			<point x="336" y="503" type="line"/>
			<point x="198" y="47" type="line"/>
			<point x="96" y="513" type="line"/>
			<point x="53" y="513" type="line"/>
			<point x="167" y="0" type="line"/>
		</contour>
	</outline>
</glyph>
<glyph name="x" format="2">
	<advance width="589"/>
	<unicode hex="0078"/>
	<anchor x="282" y="513" name="top"/>
	<anchor x="282" y="0" name="bottom"/>
	<outline>
		<contour>
			<point x="535" y="0" type="line"/>
			<point x="309" y="268" type="line"/>
			<point x="512" y="513" type="line"/>
			<point x="460" y="513" type="line"/>
			<point x="282" y="296" type="line"/>
			<point x="105" y="513" type="line"/>
			<point x="53" y="513" type="line"/>
			<point x="255" y="268" type="line"/>
			<point x="30" y="0" type="line"/>
			<point x="82" y="0" type="line"/>
			<point x="282" y="243" type="line"/>
			<point x="483" y="0" type="line"/>
		</contour>
	</outline>
</glyph>
<glyph name="y" format="2">
	<advance width="522"/>
	<unicode hex="0079"/>
	<anchor x="249" y="513" name="top"/>
	<anchor x="249" y="0" name="bottom"/>
	<outline>
		<contour>
			<point x="453" y="513" type="line"/>
			<point x="251" y="44" type="line"/>
			<point x="63" y="513" type="line"/>
			<point x="19" y="513" type="line"/>
			<point x="228" y="0" type="line"/>
			<point x="113" y="-260" type="line"/>
			<point x="156" y="-260" type="line"/>
			<point x="497" y="513" type="line"/>
		</contour>
	</outline>
</glyph>
<glyph name="z" format="2">
	<advance width="496"/>
	<unicode hex="007A"/>
	<anchor x="236" y="513" name="top"/>
	<anchor x="236" y="0" name="bottom"/>
	<outline>
		<contour>
			<point x="448" y="513" type="line"/>
			<point x="52" y="513" type="line"/>
			<point x="52" y="473" type="line"/>
			<point x="372" y="473" type="line"/>
			<point x="22" y="0" type="line"/>
			<point x="441" y="0" type="line"/>
			<point x="441" y="40" type="line"/>
			<point x="98" y="40" type="line"/>
		</contour>
	</outline>
</glyph>
<glyph name="braceleft" format="2">
	<advance width="421"/>
	<unicode hex="007B"/>
	<outline>
		<contour>
			<point x="79" y="321" type="curve"/>
			<point x="79" y="321" type="line"/>
			<point x="79" y="280" type="line"/>
			<point x="147" y="280"/>
			<point x="162" y="234"/>
			<point x="162" y="188" type="curve"/>
			<point x="162" y="-129" type="line" smooth="yes"/>
			<point x="162" y="-214"/>
			<point x="183" y="-260"/>
			<point x="271" y="-260" type="curve"/>
			<point x="318" y="-260" type="line"/>
			<point x="318" y="-220" type="line"/>
			<point x="271" y="-220" type="line" smooth="yes"/>
			<point x="213" y="-220"/>
			<point x="203" y="-189"/>
			<point x="203" y="-152" type="curve"/>
			<point x="203" y="193" type="line" smooth="yes"/>
			<point x="203" y="248"/>
			<point x="177" y="293"/>
			<point x="130" y="299" type="curve"/>
			<point x="177" y="304"/>
			<point x="203" y="351"/>
			<point x="203" y="407" type="curve"/>
			<point x="203" y="752" type="line" smooth="yes"/>
			<point x="203" y="800"/>
			<point x="224" y="820"/>
			<point x="271" y="820" type="curve"/>
			<point x="318" y="820" type="line"/>
			<point x="318" y="860" type="line"/>
			<point x="271" y="860" type="line" smooth="yes"/>
			<point x="183" y="860"/>
			<point x="162" y="814"/>
			<point x="162" y="729" type="curve"/>
			<point x="162" y="412" type="line" smooth="yes"/>
			<point x="162" y="366"/>
			<point x="147" y="321"/>
		</contour>
	</outline>
</glyph>
<glyph name="bar" format="2">
	<advance width="218"/>
	<unicode hex="007C"/>
	<outline>
		<contour>
			<point x="77" y="-151" type="line"/>
			<point x="115" y="-151" type="line"/>
			<point x="115" y="880" type="line"/>
			<point x="77" y="880" type="line"/>
		</contour>
	</outline>
</glyph>
<glyph name="asciitilde" format="2">
	<advance width="739"/>
	<unicode hex="007E"/>
	<outline>
		<contour>
			<point x="644" y="460" type="curve"/>
			<point x="644" y="460" type="line"/>
			<point x="602" y="477" type="line"/>
			<point x="584" y="434"/>
			<point x="539" y="378"/>
			<point x="478" y="378" type="curve"/>
			<point x="390" y="378"/>
			<point x="348" y="493"/>
			<point x="238" y="493" type="curve"/>
			<point x="157" y="493"/>
			<point x="95" y="423"/>
			<point x="70" y="371" type="curve"/>
			<point x="116" y="353" type="line"/>
			<point x="133" y="396"/>
			<point x="178" y="453"/>
			<point x="238" y="453" type="curve"/>
			<point x="327" y="453"/>
			<point x="369" y="338"/>
			<point x="476" y="338" type="curve"/>
			<point x="557" y="338"/>
			<point x="619" y="408"/>
		</contour>
	</outline>
</glyph>
<glyph name="cent" format="2">
	<advance width="507"/>
	<unicode hex="00A2"/>
	<outline>
		<contour>
			<point x="304" y="636" type="line"/>
			<point x="267" y="636" type="line"/>
			<point x="267" y="494" type="line"/>
			<point x="304" y="494" type="line"/>
		</contour>
		<contour>
			<point x="304" y="13" type="line"/>
			<point x="267" y="13" type="line"/>
			<point x="267" y="-129" type="line"/>
			<point x="304" y="-129" type="line"/>
		</contour>
		<component base="c"/>
	</outline>
</glyph>
<glyph name="sterling" format="2">
	<advance width="744"/>
	<unicode hex="00A3"/>
	<outline>
		<contour>
			<point x="196" y="362" type="curve"/>
			<point x="196" y="362" type="line"/>
			<point x="221" y="307"/>
			<point x="233" y="268"/>
			<point x="233" y="219" type="curve"/>
			<point x="233" y="177"/>
			<point x="221" y="141"/>
			<point x="218" y="132" type="curve"/>
			<point x="150" y="132"/>
			<point x="77" y="56"/>
			<point x="71" y="0" type="curve"/>
			<point x="113" y="0" type="line"/>
			<point x="115" y="27"/>
			<point x="160" y="97"/>
			<point x="230" y="97" type="curve"/>
			<point x="333" y="97"/>
			<point x="383" y="-15"/>
			<point x="507" y="-15" type="curve"/>
			<point x="595" y="-15"/>
			<point x="649" y="55"/>
			<point x="665" y="108" type="curve"/>
			<point x="628" y="124" type="line"/>
			<point x="621" y="81"/>
			<point x="584" y="25"/>
			<point x="508" y="25" type="curve"/>
			<point x="414" y="25"/>
			<point x="344" y="119"/>
			<point x="256" y="128" type="curve"/>
			<point x="259" y="137"/>
			<point x="272" y="176"/>
			<point x="272" y="219" type="curve"/>
			<point x="272" y="264"/>
			<point x="263" y="295"/>
			<point x="238" y="362" type="curve"/>
			<point x="226" y="387"/>
			<point x="171" y="526"/>
			<point x="171" y="607" type="curve"/>
			<point x="171" y="733"/>
			<point x="250" y="801"/>
			<point x="377" y="801" type="curve"/>
			<point x="494" y="801"/>
			<point x="568" y="725"/>
			<point x="591" y="668" type="curve"/>
			<point x="626" y="689" type="line"/>
			<point x="598" y="754"/>
			<point x="511" y="841"/>
			<point x="377" y="841" type="curve"/>
			<point x="202" y="841"/>
			<point x="131" y="732"/>
			<point x="131" y="608" type="curve"/>
			<point x="131" y="512"/>
			<point x="190" y="374"/>
		</contour>
		<contour>
			<point x="510" y="380" type="line"/>
			<point x="71" y="380" type="line"/>
			<point x="71" y="341" type="line"/>
			<point x="510" y="341" type="line"/>
		</contour>
	</outline>
</glyph>
<glyph name="currency" format="2">
	<advance width="586"/>
	<unicode hex="00A4"/>
	<outline>
		<contour>
			<point x="575" y="614" type="line"/>
			<point x="549" y="640" type="line"/>
			<point x="448" y="540" type="line"/>
			<point x="475" y="513" type="line"/>
		</contour>
		<contour>
			<point x="135" y="173" type="line"/>
			<point x="108" y="200" type="line"/>
			<point x="8" y="99" type="line"/>
			<point x="34" y="73" type="line"/>
		</contour>
		<contour>
			<point x="135" y="540" type="line"/>
			<point x="34" y="640" type="line"/>
			<point x="8" y="614" type="line"/>
			<point x="108" y="513" type="line"/>
		</contour>
		<contour>
			<point x="575" y="99" type="line"/>
			<point x="475" y="200" type="line"/>
			<point x="448" y="173" type="line"/>
			<point x="549" y="73" type="line"/>
		</contour>
		<component base="o" yOffset="100"/>
	</outline>
</glyph>
<glyph name="yen" format="2">
	<advance width="641"/>
	<unicode hex="00A5"/>
	<outline>
		<contour>
			<point x="570" y="360" type="line"/>
			<point x="46" y="360" type="line"/>
			<point x="46" y="321" type="line"/>
			<point x="570" y="321" type="line"/>
		</contour>
		<contour>
			<point x="570" y="231" type="line"/>
			<point x="46" y="231" type="line"/>
			<point x="46" y="192" type="line"/>
			<point x="570" y="192" type="line"/>
		</contour>
		<component base="Y"/>
	</outline>
</glyph>
<glyph name="brokenbar" format="2">
	<advance width="218"/>
	<unicode hex="00A6"/>
	<outline>
		<contour>
			<point x="82" y="528" type="line"/>
			<point x="110" y="528" type="line"/>
			<point x="110" y="860" type="line"/>
			<point x="82" y="860" type="line"/>
		</contour>
		<contour>
			<point x="82" y="0" type="line"/>
			<point x="110" y="0" type="line"/>
			<point x="110" y="332" type="line"/>
			<point x="82" y="332" type="line"/>
		</contour>
	</outline>
</glyph>
<glyph name="section" format="2">
	<advance width="685"/>
	<unicode hex="00A7"/>
	<outline>
		<contour>
			<point x="298" y="-275" type="curve"/>
			<point x="298" y="-275" type="line"/>
			<point x="492" y="-275"/>
			<point x="540" y="-152"/>
			<point x="540" y="-66" type="curve"/>
			<point x="540" y="4"/>
			<point x="504" y="65"/>
			<point x="441" y="101" type="curve"/>
			<point x="495" y="126"/>
			<point x="564" y="179"/>
			<point x="564" y="267" type="curve"/>
			<point x="564" y="378"/>
			<point x="468" y="424"/>
			<point x="345" y="474" type="curve"/>
			<point x="258" y="509"/>
			<point x="155" y="560"/>
			<point x="155" y="672" type="curve"/>
			<point x="155" y="749"/>
			<point x="230" y="803"/>
			<point x="338" y="803" type="curve"/>
			<point x="439" y="803"/>
			<point x="497" y="734"/>
			<point x="513" y="682" type="curve"/>
			<point x="543" y="704" type="line"/>
			<point x="525" y="762"/>
			<point x="456" y="840"/>
			<point x="336" y="840" type="curve"/>
			<point x="191" y="840"/>
			<point x="116" y="757"/>
			<point x="116" y="666" type="curve"/>
			<point x="116" y="570"/>
			<point x="175" y="525"/>
			<point x="236" y="482" type="curve"/>
			<point x="190" y="470"/>
			<point x="93" y="415"/>
			<point x="93" y="321" type="curve"/>
			<point x="93" y="230"/>
			<point x="161" y="181"/>
			<point x="290" y="131" type="curve"/>
			<point x="405" y="86"/>
			<point x="499" y="38"/>
			<point x="499" y="-71" type="curve"/>
			<point x="499" y="-160"/>
			<point x="452" y="-237"/>
			<point x="298" y="-237" type="curve"/>
			<point x="187" y="-237"/>
			<point x="124" y="-165"/>
			<point x="108" y="-111" type="curve"/>
			<point x="71" y="-129" type="line"/>
			<point x="94" y="-192"/>
			<point x="171" y="-275"/>
		</contour>
		<contour>
			<point x="275" y="462" type="curve"/>
			<point x="275" y="462" type="line"/>
			<point x="279" y="460"/>
			<point x="312" y="447"/>
			<point x="336" y="438" type="curve"/>
			<point x="437" y="398"/>
			<point x="525" y="346"/>
			<point x="525" y="270" type="curve"/>
			<point x="525" y="184"/>
			<point x="443" y="133"/>
			<point x="409" y="122" type="curve"/>
			<point x="386" y="131"/>
			<point x="344" y="149"/>
			<point x="280" y="175" type="curve"/>
			<point x="201" y="207"/>
			<point x="133" y="251"/>
			<point x="133" y="319" type="curve"/>
			<point x="133" y="401"/>
			<point x="212" y="444"/>
		</contour>
	</outline>
</glyph>
<glyph name="dieresis" format="2">
	<advance width="606"/>
	<unicode hex="00A8"/>
	<outline>
		<contour>
			<point x="172" y="745" type="curve"/>
			<point x="172" y="745" type="line"/>
			<point x="147" y="745"/>
			<point x="126" y="723"/>
			<point x="126" y="699" type="curve"/>
			<point x="126" y="675"/>
			<point x="147" y="653"/>
			<point x="172" y="653" type="curve"/>
			<point x="196" y="653"/>
			<point x="218" y="674"/>
			<point x="218" y="699" type="curve"/>
			<point x="218" y="724"/>
			<point x="196" y="745"/>
		</contour>
		<contour>
			<point x="409" y="745" type="curve"/>
			<point x="409" y="745" type="line"/>
			<point x="384" y="745"/>
			<point x="363" y="723"/>
			<point x="363" y="699" type="curve"/>
			<point x="363" y="675"/>
			<point x="384" y="653"/>
			<point x="409" y="653" type="curve"/>
			<point x="433" y="653"/>
			<point x="455" y="674"/>
			<point x="455" y="699" type="curve"/>
			<point x="455" y="724"/>
			<point x="433" y="745"/>
		</contour>
	</outline>
</glyph>
<glyph name="copyright" format="2">
	<advance width="946"/>
	<unicode hex="00A9"/>
	<outline>
		<contour>
			<point x="33" y="412" type="curve"/>
			<point x="33" y="412" type="line"/>
			<point x="33" y="177"/>
			<point x="225" y="-15"/>
			<point x="460" y="-15" type="curve"/>
			<point x="696" y="-15"/>
			<point x="888" y="177"/>
			<point x="888" y="412" type="curve"/>
			<point x="888" y="648"/>
			<point x="696" y="840"/>
			<point x="460" y="840" type="curve"/>
			<point x="225" y="840"/>
			<point x="33" y="648"/>
		</contour>
		<contour>
			<point x="66" y="412" type="curve"/>
			<point x="66" y="412" type="line"/>
			<point x="66" y="629"/>
			<point x="244" y="807"/>
			<point x="460" y="807" type="curve"/>
			<point x="677" y="807"/>
			<point x="855" y="629"/>
			<point x="855" y="412" type="curve"/>
			<point x="855" y="196"/>
			<point x="677" y="18"/>
			<point x="460" y="18" type="curve"/>
			<point x="244" y="18"/>
			<point x="66" y="196"/>
		</contour>
		<contour>
			<point x="462" y="545" type="curve"/>
			<point x="462" y="545" type="line"/>
			<point x="381" y="545"/>
			<point x="321" y="493"/>
			<point x="321" y="405" type="curve"/>
			<point x="321" y="315"/>
			<point x="383" y="266"/>
			<point x="464" y="266" type="curve"/>
			<point x="509" y="266"/>
			<point x="545" y="281"/>
			<point x="559" y="292" type="curve"/>
			<point x="574" y="262" type="line"/>
			<point x="553" y="249"/>
			<point x="509" y="232"/>
			<point x="463" y="232" type="curve"/>
			<point x="359" y="232"/>
			<point x="285" y="308"/>
			<point x="285" y="403" type="curve"/>
			<point x="285" y="503"/>
			<point x="359" y="578"/>
			<point x="463" y="578" type="curve"/>
			<point x="533" y="578"/>
			<point x="572" y="549"/>
			<point x="574" y="546" type="curve"/>
			<point x="558" y="514" type="line"/>
			<point x="544" y="527"/>
			<point x="508" y="545"/>
		</contour>
	</outline>
</glyph>
<glyph name="ordfeminine" format="2">
	<advance width="511"/>
	<unicode hex="00AA"/>
	<outline>
		<contour>
			<point x="86" y="672" type="curve"/>
			<point x="86" y="672" type="line"/>
			<point x="86" y="562"/>
			<point x="162" y="503"/>
			<point x="247" y="503" type="curve"/>
			<point x="315" y="503"/>
			<point x="357" y="547"/>
			<point x="357" y="562" type="curve"/>
			<point x="358" y="562" type="line"/>
			<point x="358" y="513" type="line"/>
			<point x="401" y="513" type="line"/>
			<point x="401" y="830" type="line"/>
			<point x="357" y="831" type="line"/>
			<point x="357" y="783" type="line"/>
			<point x="356" y="801"/>
			<point x="314" y="840"/>
			<point x="247" y="840" type="curve"/>
			<point x="162" y="840"/>
			<point x="86" y="781"/>
		</contour>
		<contour>
			<point x="126" y="672" type="curve"/>
			<point x="126" y="672" type="line"/>
			<point x="126" y="751"/>
			<point x="181" y="797"/>
			<point x="238" y="797" type="curve"/>
			<point x="303" y="797"/>
			<point x="359" y="745"/>
			<point x="359" y="672" type="curve"/>
			<point x="359" y="600"/>
			<point x="305" y="546"/>
			<point x="238" y="546" type="curve"/>
			<point x="182" y="546"/>
			<point x="126" y="592"/>
		</contour>
	</outline>
</glyph>
<glyph name="guillemotleft" format="2">
	<advance width="580"/>
	<unicode hex="00AB"/>
	<outline>
		<contour>
			<point x="228" y="57" type="line"/>
			<point x="252" y="77" type="line"/>
			<point x="90" y="278" type="line"/>
			<point x="252" y="480" type="line"/>
			<point x="228" y="498" type="line"/>
			<point x="54" y="278" type="line"/>
		</contour>
		<contour>
			<point x="455" y="57" type="line"/>
			<point x="480" y="77" type="line"/>
			<point x="318" y="278" type="line"/>
			<point x="480" y="480" type="line"/>
			<point x="455" y="498" type="line"/>
			<point x="282" y="278" type="line"/>
		</contour>
	</outline>
</glyph>
<glyph name="logicalnot" format="2">
	<advance width="487"/>
	<unicode hex="00AC"/>
	<outline>
		<contour>
			<point x="392" y="124" type="line"/>
			<point x="392" y="304" type="line"/>
			<point x="70" y="304" type="line"/>
			<point x="70" y="266" type="line"/>
			<point x="354" y="266" type="line"/>
			<point x="354" y="124" type="line"/>
		</contour>
	</outline>
</glyph>
<glyph name="registered" format="2">
	<advance width="539"/>
	<unicode hex="00AE"/>
	<outline>
		<contour>
			<point x="33" y="615" type="curve"/>
			<point x="33" y="615" type="line"/>
			<point x="33" y="492"/>
			<point x="134" y="392"/>
			<point x="256" y="392" type="curve"/>
			<point x="381" y="392"/>
			<point x="481" y="492"/>
			<point x="481" y="615" type="curve"/>
			<point x="481" y="739"/>
			<point x="381" y="840"/>
			<point x="256" y="840" type="curve"/>
			<point x="134" y="840"/>
			<point x="33" y="739"/>
		</contour>
		<contour>
			<point x="66" y="615" type="curve"/>
			<point x="66" y="615" type="line"/>
			<point x="66" y="721"/>
			<point x="152" y="807"/>
			<point x="256" y="807" type="curve"/>
			<point x="364" y="807"/>
			<point x="448" y="721"/>
			<point x="448" y="615" type="curve"/>
			<point x="448" y="509"/>
			<point x="364" y="425"/>
			<point x="256" y="425" type="curve"/>
			<point x="152" y="425"/>
			<point x="66" y="509"/>
		</contour>
		<contour>
			<point x="261" y="720" type="curve"/>
			<point x="199" y="720" type="line"/>
			<point x="199" y="513" type="line"/>
			<point x="230" y="513" type="line"/>
			<point x="230" y="595" type="line"/>
			<point x="260" y="595" type="line"/>
			<point x="303" y="513" type="line"/>
			<point x="337" y="513" type="line"/>
			<point x="289" y="599" type="line"/>
			<point x="314" y="608"/>
			<point x="329" y="627"/>
			<point x="329" y="659" type="curve"/>
			<point x="329" y="699"/>
			<point x="300" y="720"/>
		</contour>
		<contour>
			<point x="256" y="620" type="curve"/>
			<point x="230" y="620" type="line"/>
			<point x="230" y="691" type="line"/>
			<point x="252" y="691" type="line" smooth="yes"/>
			<point x="277" y="691"/>
			<point x="298" y="688"/>
			<point x="298" y="659" type="curve"/>
			<point x="298" y="630"/>
			<point x="282" y="620"/>
		</contour>
	</outline>
</glyph>
<glyph name="macron" format="2">
	<advance width="593"/>
	<unicode hex="00AF"/>
	<outline>
		<contour>
			<point x="118" y="714" type="line"/>
			<point x="118" y="674" type="line"/>
			<point x="451" y="674" type="line"/>
			<point x="451" y="714" type="line"/>
		</contour>
	</outline>
</glyph>
<glyph name="degree" format="2">
	<advance width="361"/>
	<unicode hex="00B0"/>
	<outline>
		<contour>
			<point x="87" y="772" type="curve"/>
			<point x="87" y="772" type="line"/>
			<point x="87" y="726"/>
			<point x="120" y="694"/>
			<point x="168" y="694" type="curve"/>
			<point x="215" y="694"/>
			<point x="249" y="726"/>
			<point x="249" y="772" type="curve"/>
			<point x="249" y="819"/>
			<point x="213" y="850"/>
			<point x="168" y="850" type="curve"/>
			<point x="123" y="850"/>
			<point x="87" y="819"/>
		</contour>
		<contour>
			<point x="115" y="772" type="curve"/>
			<point x="115" y="772" type="line"/>
			<point x="115" y="801"/>
			<point x="139" y="823"/>
			<point x="168" y="823" type="curve"/>
			<point x="198" y="823"/>
			<point x="222" y="801"/>
			<point x="222" y="772" type="curve"/>
			<point x="222" y="743"/>
			<point x="198" y="720"/>
			<point x="168" y="720" type="curve"/>
			<point x="137" y="720"/>
			<point x="115" y="743"/>
		</contour>
	</outline>
</glyph>
<glyph name="acute" format="2">
	<advance width="611"/>
	<unicode hex="00B4"/>
	<outline>
		<contour>
			<point x="175" y="657" type="line"/>
			<point x="199" y="626" type="line"/>
			<point x="392" y="751" type="line"/>
			<point x="354" y="798" type="line"/>
		</contour>
	</outline>
</glyph>
<glyph name="uni00B5" format="2">
	<advance width="601"/>
	<unicode hex="00B5"/>
	<outline>
		<contour>
			<point x="113" y="513" type="line"/>
			<point x="73" y="513" type="line"/>
			<point x="73" y="-245" type="line"/>
			<point x="113" y="-245" type="line"/>
		</contour>
		<component base="u"/>
	</outline>
</glyph>
<glyph name="paragraph" format="2">
	<advance width="588"/>
	<unicode hex="00B6"/>
	<outline>
		<contour>
			<point x="439" y="0" type="line"/>
			<point x="473" y="0" type="line"/>
			<point x="473" y="825" type="line"/>
			<point x="291" y="825" type="line" smooth="yes"/>
			<point x="118" y="825"/>
			<point x="54" y="712"/>
			<point x="54" y="621" type="curve"/>
			<point x="54" y="531"/>
			<point x="118" y="406"/>
			<point x="291" y="406" type="curve"/>
			<point x="325" y="406" type="line"/>
			<point x="325" y="0" type="line"/>
			<point x="359" y="0" type="line"/>
			<point x="359" y="784" type="line"/>
			<point x="439" y="784" type="line"/>
		</contour>
	</outline>
</glyph>
<glyph name="cedilla" format="2">
	<advance width="491"/>
	<unicode hex="00B8"/>
	<outline>
		<contour>
			<point x="253" y="9" type="line"/>
			<point x="219" y="26" type="line"/>
			<point x="171" y="-111" type="line"/>
			<point x="197" y="-125" type="line"/>
			<point x="209" y="-121"/>
			<point x="234" y="-116"/>
			<point x="260" y="-116" type="curve"/>
			<point x="298" y="-116"/>
			<point x="323" y="-132"/>
			<point x="323" y="-166" type="curve"/>
			<point x="323" y="-201"/>
			<point x="284" y="-224"/>
			<point x="235" y="-224" type="curve"/>
			<point x="199" y="-224"/>
			<point x="164" y="-208"/>
			<point x="148" y="-196" type="curve"/>
			<point x="121" y="-230" type="line"/>
			<point x="142" y="-244"/>
			<point x="188" y="-262"/>
			<point x="235" y="-262" type="curve"/>
			<point x="295" y="-262"/>
			<point x="366" y="-228"/>
			<point x="366" y="-158" type="curve"/>
			<point x="366" y="-86"/>
			<point x="270" y="-73"/>
			<point x="219" y="-91" type="curve"/>
		</contour>
	</outline>
</glyph>
<glyph name="ordmasculine" format="2">
	<advance width="526"/>
	<unicode hex="00BA"/>
	<outline>
		<contour>
			<point x="85" y="671" type="curve"/>
			<point x="85" y="671" type="line"/>
			<point x="85" y="574"/>
			<point x="162" y="504"/>
			<point x="252" y="504" type="curve"/>
			<point x="336" y="504"/>
			<point x="416" y="574"/>
			<point x="416" y="671" type="curve"/>
			<point x="416" y="770"/>
			<point x="332" y="840"/>
			<point x="252" y="840" type="curve"/>
			<point x="170" y="840"/>
			<point x="85" y="770"/>
		</contour>
		<contour>
			<point x="130" y="671" type="curve"/>
			<point x="130" y="671" type="line"/>
			<point x="130" y="748"/>
			<point x="191" y="802"/>
			<point x="251" y="802" type="curve"/>
			<point x="311" y="802"/>
			<point x="373" y="748"/>
			<point x="373" y="671" type="curve"/>
			<point x="373" y="596"/>
			<point x="314" y="541"/>
			<point x="251" y="541" type="curve"/>
			<point x="185" y="541"/>
			<point x="130" y="596"/>
		</contour>
	</outline>
</glyph>
<glyph name="AE" format="2">
	<advance width="1002"/>
	<unicode hex="00C6"/>
	<outline>
		<contour>
			<point x="533" y="825" type="line"/>
			<point x="484" y="825" type="line"/>
			<point x="17" y="0" type="line"/>
			<point x="59" y="0" type="line"/>
			<point x="188" y="226" type="line"/>
			<point x="542" y="226" type="line"/>
		</contour>
		<contour>
			<point x="508" y="266" type="line"/>
			<point x="206" y="266" type="line"/>
			<point x="506" y="791" type="line"/>
			<point x="508" y="781" type="line"/>
		</contour>
		<component base="E" xOffset="419"/>
	</outline>
</glyph>
<glyph name="Eth" format="2">
	<advance width="768"/>
	<unicode hex="00D0"/>
	<outline>
		<contour>
			<point x="332" y="825" type="curve"/>
			<point x="332" y="825" type="line"/>
			<point x="180" y="825" type="line"/>
			<point x="180" y="427" type="line"/>
			<point x="33" y="427" type="line"/>
			<point x="33" y="399" type="line"/>
			<point x="180" y="399" type="line"/>
			<point x="180" y="0" type="line"/>
			<point x="332" y="0" type="line" smooth="yes"/>
			<point x="596" y="0"/>
			<point x="704" y="172"/>
			<point x="704" y="413" type="curve"/>
			<point x="704" y="653"/>
			<point x="594" y="825"/>
		</contour>
		<contour>
			<point x="310" y="43" type="curve"/>
			<point x="310" y="43" type="line"/>
			<point x="218" y="43" type="line"/>
			<point x="218" y="399" type="line"/>
			<point x="375" y="399" type="line"/>
			<point x="375" y="427" type="line"/>
			<point x="218" y="427" type="line"/>
			<point x="218" y="782" type="line"/>
			<point x="310" y="782" type="line" smooth="yes"/>
			<point x="553" y="782"/>
			<point x="670" y="652"/>
			<point x="669" y="406" type="curve"/>
			<point x="668" y="174"/>
			<point x="547" y="43"/>
		</contour>
	</outline>
</glyph>
<glyph name="multiply" format="2">
	<advance width="614"/>
	<unicode hex="00D7"/>
	<outline>
		<contour>
			<point x="512" y="226" type="line"/>
			<point x="322" y="415" type="line"/>
			<point x="511" y="604" type="line"/>
			<point x="484" y="631" type="line"/>
			<point x="296" y="442" type="line"/>
			<point x="107" y="631" type="line"/>
			<point x="80" y="604" type="line"/>
			<point x="269" y="415" type="line"/>
			<point x="79" y="226" type="line"/>
			<point x="106" y="199" type="line"/>
			<point x="296" y="388" type="line"/>
			<point x="485" y="199" type="line"/>
		</contour>
	</outline>
</glyph>
<glyph name="Oslash" format="2">
	<advance width="862"/>
	<unicode hex="00D8"/>
	<outline>
		<contour>
			<point x="836" y="791" type="line"/>
			<point x="808" y="817" type="line"/>
			<point x="15" y="13" type="line"/>
			<point x="43" y="-13" type="line"/>
		</contour>
		<component base="O"/>
	</outline>
</glyph>
<glyph name="Thorn" format="2">
	<advance width="601"/>
	<unicode hex="00DE"/>
	<outline>
		<contour>
			<point x="122" y="825" type="line"/>
			<point x="84" y="825" type="line"/>
			<point x="84" y="0" type="line"/>
			<point x="122" y="0" type="line"/>
			<point x="122" y="153" type="line"/>
			<point x="303" y="153" type="line" smooth="yes"/>
			<point x="443" y="153"/>
			<point x="540" y="248"/>
			<point x="540" y="418" type="curve"/>
			<point x="540" y="589"/>
			<point x="443" y="672"/>
			<point x="303" y="672" type="curve"/>
			<point x="122" y="672" type="line"/>
		</contour>
		<contour>
			<point x="300" y="192" type="curve"/>
			<point x="122" y="192" type="line"/>
			<point x="122" y="633" type="line"/>
			<point x="300" y="633" type="line" smooth="yes"/>
			<point x="424" y="633"/>
			<point x="502" y="566"/>
			<point x="502" y="420" type="curve"/>
			<point x="502" y="274"/>
			<point x="424" y="192"/>
		</contour>
	</outline>
</glyph>
<glyph name="germandbls" format="2">
	<advance width="579"/>
	<unicode hex="00DF"/>
	<anchor x="251" y="513" name="top"/>
	<anchor x="251" y="0" name="bottom"/>
	<outline>
		<contour>
			<point x="226" y="25" type="curve"/>
			<point x="226" y="25" type="line"/>
			<point x="226" y="-15" type="line"/>
			<point x="404" y="-15"/>
			<point x="508" y="72"/>
			<point x="508" y="230" type="curve"/>
			<point x="508" y="359"/>
			<point x="398" y="444"/>
			<point x="316" y="454" type="curve"/>
			<point x="379" y="465"/>
			<point x="479" y="548"/>
			<point x="479" y="668" type="curve"/>
			<point x="479" y="805"/>
			<point x="397" y="875"/>
			<point x="281" y="875" type="curve"/>
			<point x="154" y="875"/>
			<point x="60" y="772"/>
			<point x="60" y="622" type="curve"/>
			<point x="60" y="0" type="line"/>
			<point x="100" y="0" type="line"/>
			<point x="100" y="616" type="line" smooth="yes"/>
			<point x="100" y="725"/>
			<point x="159" y="835"/>
			<point x="281" y="835" type="curve"/>
			<point x="363" y="835"/>
			<point x="437" y="796"/>
			<point x="437" y="673" type="curve"/>
			<point x="437" y="555"/>
			<point x="359" y="470"/>
			<point x="226" y="470" type="curve"/>
			<point x="226" y="430" type="line"/>
			<point x="377" y="430"/>
			<point x="467" y="357"/>
			<point x="467" y="228" type="curve"/>
			<point x="467" y="121"/>
			<point x="395" y="25"/>
		</contour>
	</outline>
</glyph>
<glyph name="ae" format="2">
	<advance width="882"/>
	<unicode hex="00E6"/>
	<anchor x="429" y="513" name="top"/>
	<anchor x="429" y="0" name="bottom"/>
	<outline>
		<contour>
			<point x="229" y="-15" type="curve"/>
			<point x="229" y="-15" type="line"/>
			<point x="328" y="-15"/>
			<point x="399" y="61"/>
			<point x="412" y="99" type="curve"/>
			<point x="434" y="39"/>
			<point x="516" y="-15"/>
			<point x="608" y="-15" type="curve"/>
			<point x="714" y="-15"/>
			<point x="787" y="64"/>
			<point x="812" y="107" type="curve"/>
			<point x="776" y="130" type="line"/>
			<point x="764" y="105"/>
			<point x="706" y="25"/>
			<point x="612" y="25" type="curve"/>
			<point x="486" y="25"/>
			<point x="435" y="103"/>
			<point x="435" y="245" type="curve"/>
			<point x="820" y="245" type="line"/>
			<point x="820" y="251"/>
			<point x="821" y="249"/>
			<point x="821" y="256" type="curve"/>
			<point x="821" y="436"/>
			<point x="739" y="528"/>
			<point x="608" y="528" type="curve"/>
			<point x="514" y="528"/>
			<point x="437" y="450"/>
			<point x="423" y="390" type="curve"/>
			<point x="404" y="451"/>
			<point x="351" y="528"/>
			<point x="239" y="528" type="curve"/>
			<point x="153" y="528"/>
			<point x="89" y="490"/>
			<point x="64" y="462" type="curve"/>
			<point x="95" y="423" type="line"/>
			<point x="117" y="451"/>
			<point x="172" y="488"/>
			<point x="239" y="488" type="curve"/>
			<point x="290" y="488"/>
			<point x="391" y="455"/>
			<point x="391" y="299" type="curve"/>
			<point x="391" y="267" type="line"/>
			<point x="380" y="281"/>
			<point x="322" y="323"/>
			<point x="233" y="323" type="curve"/>
			<point x="128" y="323"/>
			<point x="36" y="258"/>
			<point x="36" y="156" type="curve"/>
			<point x="36" y="37"/>
			<point x="127" y="-15"/>
		</contour>
		<contour>
			<point x="223" y="25" type="curve"/>
			<point x="223" y="25" type="line"/>
			<point x="140" y="26"/>
			<point x="77" y="80"/>
			<point x="77" y="155" type="curve"/>
			<point x="77" y="239"/>
			<point x="163" y="283"/>
			<point x="238" y="283" type="curve"/>
			<point x="324" y="283"/>
			<point x="391" y="237"/>
			<point x="391" y="162" type="curve"/>
			<point x="391" y="96"/>
			<point x="320" y="24"/>
		</contour>
		<contour>
			<point x="775" y="283" type="curve"/>
			<point x="440" y="283" type="line"/>
			<point x="448" y="408"/>
			<point x="507" y="488"/>
			<point x="612" y="488" type="curve"/>
			<point x="755" y="488"/>
			<point x="774" y="337"/>
		</contour>
	</outline>
</glyph>
<glyph name="eth" format="2">
	<advance width="669"/>
	<unicode hex="00F0"/>
	<outline>
		<contour>
			<point x="58" y="256" type="curve"/>
			<point x="58" y="256" type="line"/>
			<point x="58" y="97"/>
			<point x="157" y="-15"/>
			<point x="330" y="-15" type="curve"/>
			<point x="506" y="-15"/>
			<point x="598" y="108"/>
			<point x="598" y="266" type="curve"/>
			<point x="598" y="522"/>
			<point x="479" y="645"/>
			<point x="332" y="726" type="curve"/>
			<point x="419" y="805" type="line"/>
			<point x="374" y="840" type="line"/>
			<point x="288" y="747" type="line"/>
			<point x="268" y="757"/>
			<point x="196" y="783"/>
			<point x="147" y="796" type="curve"/>
			<point x="130" y="760" type="line"/>
			<point x="159" y="754"/>
			<point x="230" y="730"/>
			<point x="259" y="715" type="curve"/>
			<point x="170" y="625" type="line"/>
			<point x="207" y="590" type="line"/>
			<point x="305" y="696" type="line"/>
			<point x="404" y="644"/>
			<point x="502" y="540"/>
			<point x="529" y="452" type="curve"/>
			<point x="514" y="468"/>
			<point x="451" y="528"/>
			<point x="322" y="528" type="curve"/>
			<point x="179" y="528"/>
			<point x="58" y="425"/>
		</contour>
		<contour>
			<point x="98" y="256" type="curve"/>
			<point x="98" y="256" type="line"/>
			<point x="98" y="400"/>
			<point x="190" y="488"/>
			<point x="329" y="488" type="curve"/>
			<point x="478" y="488"/>
			<point x="558" y="414"/>
			<point x="558" y="256" type="curve"/>
			<point x="558" y="125"/>
			<point x="485" y="24"/>
			<point x="329" y="24" type="curve"/>
			<point x="186" y="24"/>
			<point x="98" y="123"/>
		</contour>
	</outline>
</glyph>
<glyph name="divide" format="2">
	<advance width="628"/>
	<unicode hex="00F7"/>
	<outline>
		<contour>
			<point x="300" y="648" type="curve"/>
			<point x="300" y="648" type="line"/>
			<point x="276" y="648"/>
			<point x="256" y="628"/>
			<point x="256" y="602" type="curve"/>
			<point x="256" y="578"/>
			<point x="276" y="558"/>
			<point x="300" y="558" type="curve"/>
			<point x="326" y="558"/>
			<point x="346" y="578"/>
			<point x="346" y="602" type="curve"/>
			<point x="346" y="627"/>
			<point x="326" y="648"/>
		</contour>
		<contour>
			<point x="76" y="431" type="line"/>
			<point x="76" y="393" type="line"/>
			<point x="527" y="393" type="line"/>
			<point x="527" y="431" type="line"/>
		</contour>
		<contour>
			<point x="300" y="271" type="curve"/>
			<point x="300" y="271" type="line"/>
			<point x="276" y="271"/>
			<point x="256" y="251"/>
			<point x="256" y="225" type="curve"/>
			<point x="256" y="201"/>
			<point x="277" y="182"/>
			<point x="300" y="182" type="curve"/>
			<point x="325" y="182"/>
			<point x="346" y="201"/>
			<point x="346" y="225" type="curve"/>
			<point x="346" y="251"/>
			<point x="326" y="271"/>
		</contour>
	</outline>
</glyph>
<glyph name="oslash" format="2">
	<advance width="611"/>
	<unicode hex="00F8"/>
	<outline>
		<contour>
			<point x="564" y="504" type="line"/>
			<point x="536" y="530" type="line"/>
			<point x="26" y="13" type="line"/>
			<point x="54" y="-13" type="line"/>
		</contour>
		<component base="o"/>
	</outline>
</glyph>
<glyph name="thorn" format="2">
	<advance width="618"/>
	<unicode hex="00FE"/>
	<outline>
		<contour>
			<point x="115" y="0" type="line"/>
			<point x="75" y="0" type="line"/>
			<point x="75" y="-260" type="line"/>
			<point x="115" y="-260" type="line"/>
		</contour>
		<component base="b"/>
	</outline>
</glyph>
<glyph name="Dcroat" format="2">
	<advance width="768"/>
	<unicode hex="0110"/>
	<outline>
		<contour>
			<point x="180" y="399" type="line"/>
			<point x="180" y="0" type="line"/>
			<point x="332" y="0" type="line" smooth="yes"/>
			<point x="596" y="0"/>
			<point x="704" y="172"/>
			<point x="704" y="413" type="curve"/>
			<point x="704" y="653"/>
			<point x="595" y="825"/>
			<point x="332" y="825" type="curve"/>
			<point x="180" y="825" type="line"/>
			<point x="180" y="427" type="line"/>
			<point x="33" y="427" type="line"/>
			<point x="33" y="399" type="line"/>
		</contour>
		<contour>
			<point x="310" y="43" type="curve"/>
			<point x="218" y="43" type="line"/>
			<point x="218" y="399" type="line"/>
			<point x="375" y="399" type="line"/>
			<point x="375" y="427" type="line"/>
			<point x="218" y="427" type="line"/>
			<point x="218" y="782" type="line"/>
			<point x="310" y="782" type="line" smooth="yes"/>
			<point x="545" y="782"/>
			<point x="670" y="660"/>
			<point x="669" y="406" type="curve"/>
			<point x="668" y="180"/>
			<point x="553" y="43"/>
		</contour>
	</outline>
</glyph>
<glyph name="dcroat" format="2">
	<advance width="618"/>
	<unicode hex="0111"/>
	<outline>
		<contour>
			<point x="358" y="692" type="line"/>
			<point x="358" y="653" type="line"/>
			<point x="620" y="653" type="line"/>
			<point x="620" y="692" type="line"/>
		</contour>
		<component base="d"/>
	</outline>
</glyph>
<glyph name="Hbar" format="2">
	<advance width="697"/>
	<unicode hex="0126"/>
	<outline>
		<contour>
			<point x="655" y="668" type="line"/>
			<point x="18" y="668" type="line"/>
			<point x="18" y="629" type="line"/>
			<point x="655" y="629" type="line"/>
		</contour>
		<component base="H"/>
	</outline>
</glyph>
<glyph name="hbar" format="2">
	<advance width="606"/>
	<unicode hex="0127"/>
	<outline>
		<contour>
			<point x="14" y="692" type="line"/>
			<point x="14" y="653" type="line"/>
			<point x="276" y="653" type="line"/>
			<point x="276" y="692" type="line"/>
		</contour>
		<component base="h"/>
	</outline>
</glyph>
<glyph name="dotlessi" format="2">
	<advance width="212"/>
	<unicode hex="0131"/>
	<anchor x="150" y="10" name="ogonek"/>
	<anchor x="94" y="0" name="bottom"/>
	<anchor x="94" y="513" name="top"/>
	<outline>
		<contour>
			<point x="74" y="513" type="line"/>
			<point x="74" y="0" type="line"/>
			<point x="114" y="0" type="line"/>
			<point x="114" y="513" type="line"/>
		</contour>
	</outline>
</glyph>
<glyph name="kgreenlandic" format="2">
	<advance width="459"/>
	<unicode hex="0138"/>
	<anchor x="256" y="513" name="top"/>
	<anchor x="256" y="0" name="bottom"/>
	<outline>
		<contour>
			<point x="438" y="0" type="line"/>
			<point x="178" y="265" type="line"/>
			<point x="418" y="513" type="line"/>
			<point x="366" y="513" type="line"/>
			<point x="134" y="269" type="line"/>
			<point x="134" y="513" type="line"/>
			<point x="94" y="513" type="line"/>
			<point x="94" y="0" type="line"/>
			<point x="134" y="0" type="line"/>
			<point x="134" y="254" type="line"/>
			<point x="385" y="0" type="line"/>
		</contour>
	</outline>
</glyph>
<glyph name="Lslash" format="2">
	<advance width="590"/>
	<unicode hex="0141"/>
	<outline>
		<contour>
			<point x="131" y="412" type="line"/>
			<point x="131" y="0" type="line"/>
			<point x="515" y="0" type="line"/>
			<point x="515" y="40" type="line"/>
			<point x="169" y="40" type="line"/>
			<point x="169" y="441" type="line"/>
			<point x="241" y="498" type="line"/>
			<point x="241" y="563" type="line"/>
			<point x="169" y="506" type="line"/>
			<point x="169" y="825" type="line"/>
			<point x="131" y="825" type="line"/>
			<point x="131" y="477" type="line"/>
			<point x="37" y="403" type="line"/>
			<point x="37" y="338" type="line"/>
		</contour>
	</outline>
</glyph>
<glyph name="lslash" format="2">
	<advance width="286"/>
	<unicode hex="0142"/>
	<outline>
		<contour>
			<point x="102" y="380" type="line"/>
			<point x="102" y="0" type="line"/>
			<point x="143" y="0" type="line"/>
			<point x="143" y="413" type="line"/>
			<point x="215" y="469" type="line"/>
			<point x="215" y="536" type="line"/>
			<point x="143" y="480" type="line"/>
			<point x="143" y="860" type="line"/>
			<point x="102" y="860" type="line"/>
			<point x="102" y="447" type="line"/>
			<point x="46" y="403" type="line"/>
			<point x="46" y="336" type="line"/>
		</contour>
	</outline>
</glyph>
<glyph name="Eng" format="2">
	<advance width="800"/>
	<unicode hex="014A"/>
	<outline>
		<contour>
			<point x="654" y="0" type="line"/>
			<point x="692" y="0" type="line"/>
			<point x="692" y="-29" type="line" smooth="yes"/>
			<point x="692" y="-176"/>
			<point x="643" y="-265"/>
			<point x="548" y="-265" type="curve"/>
			<point x="505" y="-265"/>
			<point x="457" y="-243"/>
			<point x="451" y="-239" type="curve"/>
			<point x="476" y="-205" type="line"/>
			<point x="488" y="-214"/>
			<point x="516" y="-225"/>
			<point x="550" y="-225" type="curve"/>
			<point x="624" y="-225"/>
			<point x="654" y="-152"/>
			<point x="654" y="-25" type="curve"/>
		</contour>
		<component base="N"/>
	</outline>
</glyph>
<glyph name="eng" format="2">
	<advance width="596"/>
	<unicode hex="014B"/>
	<outline>
		<contour>
			<point x="462" y="0" type="line"/>
			<point x="503" y="0" type="line"/>
			<point x="503" y="-79" type="line" smooth="yes"/>
			<point x="503" y="-182"/>
			<point x="479" y="-265"/>
			<point x="381" y="-265" type="curve"/>
			<point x="334" y="-265"/>
			<point x="303" y="-248"/>
			<point x="302" y="-246" type="curve"/>
			<point x="325" y="-205" type="line"/>
			<point x="334" y="-214"/>
			<point x="357" y="-225"/>
			<point x="388" y="-225" type="curve"/>
			<point x="462" y="-225"/>
			<point x="462" y="-132"/>
			<point x="462" y="-45" type="curve"/>
		</contour>
		<component base="n"/>
	</outline>
</glyph>
<glyph name="OE" format="2">
	<advance width="964"/>
	<unicode hex="0152"/>
	<anchor x="470" y="825" name="top"/>
	<anchor x="470" y="0" name="bottom"/>
	<outline>
		<contour>
			<point x="423" y="0" type="curve"/>
			<point x="423" y="0" type="line"/>
			<point x="869" y="0" type="line"/>
			<point x="869" y="40" type="line"/>
			<point x="498" y="40" type="line"/>
			<point x="498" y="394" type="line"/>
			<point x="857" y="394" type="line"/>
			<point x="857" y="434" type="line"/>
			<point x="498" y="434" type="line"/>
			<point x="498" y="785" type="line"/>
			<point x="869" y="785" type="line"/>
			<point x="869" y="825" type="line"/>
			<point x="423" y="825" type="line" smooth="yes"/>
			<point x="196" y="825"/>
			<point x="44" y="654"/>
			<point x="44" y="413" type="curve"/>
			<point x="44" y="172"/>
			<point x="175" y="0"/>
		</contour>
		<contour>
			<point x="460" y="36" type="line"/>
			<point x="417" y="36" type="line"/>
			<point x="197" y="36"/>
			<point x="85" y="206"/>
			<point x="85" y="413" type="curve"/>
			<point x="85" y="620"/>
			<point x="208" y="791"/>
			<point x="417" y="791" type="curve"/>
			<point x="460" y="791" type="line"/>
		</contour>
	</outline>
</glyph>
<glyph name="Tbar" format="2">
	<advance width="601"/>
	<unicode hex="0166"/>
	<outline>
		<contour>
			<point x="539" y="478" type="line"/>
			<point x="33" y="478" type="line"/>
			<point x="33" y="438" type="line"/>
			<point x="539" y="438" type="line"/>
		</contour>
		<component base="T"/>
	</outline>
</glyph>
<glyph name="tbar" format="2">
	<advance width="380"/>
	<unicode hex="0167"/>
	<outline>
		<contour>
			<point x="332" y="343" type="line"/>
			<point x="34" y="343" type="line"/>
			<point x="34" y="303" type="line"/>
			<point x="332" y="303" type="line"/>
		</contour>
		<component base="t"/>
	</outline>
</glyph>
<glyph name="uni018F" format="2">
	<advance width="823"/>
	<unicode hex="018F"/>
	<outline>
		<contour>
			<point x="390" y="-8" type="curve"/>
			<point x="390" y="-8" type="line"/>
			<point x="626" y="-8"/>
			<point x="767" y="184"/>
			<point x="767" y="429" type="curve"/>
			<point x="767" y="691"/>
			<point x="617" y="840"/>
			<point x="395" y="840" type="curve"/>
			<point x="219" y="840"/>
			<point x="90" y="728"/>
			<point x="59" y="656" type="curve"/>
			<point x="96" y="631" type="line"/>
			<point x="113" y="671"/>
			<point x="210" y="801"/>
			<point x="393" y="801" type="curve"/>
			<point x="595" y="801"/>
			<point x="724" y="663"/>
			<point x="724" y="432" type="curve"/>
			<point x="31" y="432" type="line"/>
			<point x="31" y="426"/>
			<point x="30" y="418"/>
			<point x="30" y="411" type="curve"/>
			<point x="30" y="183"/>
			<point x="171" y="-8"/>
		</contour>
		<contour>
			<point x="390" y="32" type="curve"/>
			<point x="390" y="32" type="line"/>
			<point x="190" y="32"/>
			<point x="74" y="216"/>
			<point x="74" y="392" type="curve"/>
			<point x="721" y="392" type="line"/>
			<point x="721" y="212"/>
			<point x="605" y="32"/>
		</contour>
	</outline>
</glyph>
<glyph name="florin" format="2">
	<advance width="381"/>
	<unicode hex="0192"/>
	<outline>
		<contour>
			<point x="-70" y="-267" type="curve"/>
			<point x="-70" y="-267" type="line"/>
			<point x="2" y="-267"/>
			<point x="89" y="-221"/>
			<point x="111" y="-59" type="curve"/>
			<point x="187" y="474" type="line"/>
			<point x="349" y="474" type="line"/>
			<point x="355" y="513" type="line"/>
			<point x="193" y="513" type="line"/>
			<point x="213" y="659" type="line" smooth="yes"/>
			<point x="234" y="811"/>
			<point x="295" y="837"/>
			<point x="347" y="837" type="curve"/>
			<point x="395" y="837"/>
			<point x="417" y="818"/>
			<point x="422" y="813" type="curve"/>
			<point x="446" y="848" type="line"/>
			<point x="442" y="852"/>
			<point x="413" y="875"/>
			<point x="356" y="875" type="curve"/>
			<point x="284" y="875"/>
			<point x="197" y="829"/>
			<point x="175" y="667" type="curve"/>
			<point x="154" y="513" type="line"/>
			<point x="32" y="513" type="line"/>
			<point x="26" y="474" type="line"/>
			<point x="148" y="474" type="line"/>
			<point x="73" y="-51" type="line"/>
			<point x="52" y="-203"/>
			<point x="-9" y="-229"/>
			<point x="-61" y="-229" type="curve"/>
			<point x="-109" y="-229"/>
			<point x="-131" y="-210"/>
			<point x="-136" y="-205" type="curve"/>
			<point x="-160" y="-240" type="line"/>
			<point x="-156" y="-244"/>
			<point x="-127" y="-267"/>
		</contour>
	</outline>
</glyph>
<glyph name="uni0237" format="2">
	<advance width="267"/>
	<unicode hex="0237"/>
	<anchor x="134" y="513" name="top"/>
	<anchor x="134" y="-260" name="bottom"/>
	<outline>
		<contour>
			<point x="32" y="-275" type="curve"/>
			<point x="32" y="-275" type="line"/>
			<point x="127" y="-275"/>
			<point x="154" y="-202"/>
			<point x="154" y="-79" type="curve"/>
			<point x="154" y="513" type="line"/>
			<point x="114" y="513" type="line"/>
			<point x="114" y="-55" type="line" smooth="yes"/>
			<point x="114" y="-162"/>
			<point x="105" y="-235"/>
			<point x="31" y="-235" type="curve"/>
			<point x="-4" y="-235"/>
			<point x="-15" y="-226"/>
			<point x="-24" y="-218" type="curve"/>
			<point x="-49" y="-252" type="line"/>
			<point x="-38" y="-262"/>
			<point x="-8" y="-275"/>
		</contour>
	</outline>
</glyph>
<glyph name="circumflex" format="2">
	<advance width="627"/>
	<unicode hex="02C6"/>
	<outline>
		<contour>
			<point x="143" y="704" type="line"/>
			<point x="174" y="663" type="line"/>
			<point x="302" y="757" type="line"/>
			<point x="431" y="662" type="line"/>
			<point x="461" y="703" type="line"/>
			<point x="302" y="820" type="line"/>
		</contour>
	</outline>
</glyph>
<glyph name="caron" format="2">
	<advance width="627"/>
	<unicode hex="02C7"/>
	<outline>
		<contour>
			<point x="174" y="769" type="line"/>
			<point x="143" y="728" type="line"/>
			<point x="302" y="612" type="line"/>
			<point x="461" y="729" type="line"/>
			<point x="431" y="770" type="line"/>
			<point x="302" y="676" type="line"/>
		</contour>
	</outline>
</glyph>
<glyph name="breve" format="2">
	<advance width="647"/>
	<unicode hex="02D8"/>
	<outline>
		<contour>
			<point x="456" y="765" type="curve"/>
			<point x="456" y="765" type="line"/>
			<point x="403" y="778" type="line"/>
			<point x="396" y="744"/>
			<point x="366" y="698"/>
			<point x="311" y="698" type="curve"/>
			<point x="256" y="698"/>
			<point x="225" y="744"/>
			<point x="218" y="778" type="curve"/>
			<point x="166" y="765" type="line"/>
			<point x="171" y="719"/>
			<point x="222" y="653"/>
			<point x="311" y="653" type="curve"/>
			<point x="401" y="653"/>
			<point x="451" y="721"/>
		</contour>
	</outline>
</glyph>
<glyph name="dotaccent" format="2">
	<advance width="369"/>
	<unicode hex="02D9"/>
	<outline>
		<contour>
			<point x="172" y="745" type="curve"/>
			<point x="172" y="745" type="line"/>
			<point x="147" y="745"/>
			<point x="126" y="723"/>
			<point x="126" y="699" type="curve"/>
			<point x="126" y="675"/>
			<point x="147" y="653"/>
			<point x="172" y="653" type="curve"/>
			<point x="196" y="653"/>
			<point x="218" y="674"/>
			<point x="218" y="699" type="curve"/>
			<point x="218" y="724"/>
			<point x="196" y="745"/>
		</contour>
	</outline>
</glyph>
<glyph name="ring" format="2">
	<advance width="507"/>
	<unicode hex="02DA"/>
	<outline>
		<contour>
			<point x="140" y="732" type="curve"/>
			<point x="140" y="732" type="line"/>
			<point x="140" y="679"/>
			<point x="180" y="641"/>
			<point x="241" y="641" type="curve"/>
			<point x="300" y="641"/>
			<point x="342" y="679"/>
			<point x="342" y="732" type="curve"/>
			<point x="342" y="784"/>
			<point x="298" y="823"/>
			<point x="241" y="823" type="curve"/>
			<point x="185" y="823"/>
			<point x="140" y="784"/>
		</contour>
		<contour>
			<point x="185" y="732" type="curve"/>
			<point x="185" y="732" type="line"/>
			<point x="185" y="768"/>
			<point x="212" y="789"/>
			<point x="241" y="789" type="curve"/>
			<point x="273" y="789"/>
			<point x="297" y="768"/>
			<point x="297" y="732" type="curve"/>
			<point x="297" y="696"/>
			<point x="273" y="675"/>
			<point x="241" y="675" type="curve"/>
			<point x="212" y="675"/>
			<point x="185" y="696"/>
		</contour>
	</outline>
</glyph>
<glyph name="ogonek" format="2">
	<advance width="448"/>
	<unicode hex="02DB"/>
	<outline>
		<contour>
			<point x="206" y="-263" type="curve"/>
			<point x="206" y="-263" type="line"/>
			<point x="263" y="-263"/>
			<point x="324" y="-235"/>
			<point x="343" y="-203" type="curve"/>
			<point x="309" y="-177" type="line"/>
			<point x="293" y="-200"/>
			<point x="259" y="-225"/>
			<point x="218" y="-225" type="curve"/>
			<point x="171" y="-225"/>
			<point x="131" y="-210"/>
			<point x="131" y="-153" type="curve"/>
			<point x="131" y="-102"/>
			<point x="188" y="-36"/>
			<point x="229" y="0" type="curve"/>
			<point x="202" y="25" type="line"/>
			<point x="152" y="-15"/>
			<point x="85" y="-90"/>
			<point x="85" y="-156" type="curve"/>
			<point x="85" y="-243"/>
			<point x="154" y="-263"/>
		</contour>
	</outline>
</glyph>
<glyph name="tilde" format="2">
	<advance width="647"/>
	<unicode hex="02DC"/>
	<outline>
		<contour>
			<point x="245" y="701" type="curve"/>
			<point x="245" y="701" type="line"/>
			<point x="290" y="701"/>
			<point x="316" y="653"/>
			<point x="391" y="653" type="curve"/>
			<point x="446" y="653"/>
			<point x="485" y="708"/>
			<point x="499" y="750" type="curve"/>
			<point x="439" y="750" type="line" smooth="yes"/>
			<point x="434" y="729"/>
			<point x="415" y="701"/>
			<point x="381" y="701" type="curve"/>
			<point x="324" y="701"/>
			<point x="303" y="750"/>
			<point x="228" y="750" type="curve"/>
			<point x="173" y="750"/>
			<point x="136" y="695"/>
			<point x="124" y="653" type="curve"/>
			<point x="184" y="653" type="line"/>
			<point x="191" y="674"/>
			<point x="213" y="701"/>
		</contour>
	</outline>
</glyph>
<glyph name="hungarumlaut" format="2">
	<advance width="651"/>
	<unicode hex="02DD"/>
	<outline>
		<contour>
			<point x="126" y="645" type="line"/>
			<point x="151" y="621" type="line"/>
			<point x="329" y="769" type="line"/>
			<point x="290" y="818" type="line"/>
		</contour>
		<contour>
			<point x="342" y="645" type="line"/>
			<point x="367" y="621" type="line"/>
			<point x="545" y="769" type="line"/>
			<point x="506" y="818" type="line"/>
		</contour>
	</outline>
</glyph>
<glyph name="hookabovecomb" format="2">
	<advance width="0"/>
	<unicode hex="0309"/>
	<anchor x="-362" y="836" name="top"/>
	<anchor x="-362" y="513" name="_top"/>
	<outline>
		<contour>
			<point x="-371" y="549" type="curve"/>
			<point x="-395" y="581" type="line"/>
			<point x="-360" y="590"/>
			<point x="-280" y="627"/>
			<point x="-280" y="700" type="curve"/>
			<point x="-280" y="773"/>
			<point x="-335" y="777"/>
			<point x="-373" y="777" type="curve"/>
			<point x="-409" y="777"/>
			<point x="-461" y="759"/>
			<point x="-486" y="746" type="curve"/>
			<point x="-486" y="786" type="line"/>
			<point x="-471" y="796"/>
			<point x="-428" y="816"/>
			<point x="-361" y="816" type="curve"/>
			<point x="-298" y="816"/>
			<point x="-238" y="792"/>
			<point x="-238" y="705" type="curve"/>
			<point x="-238" y="613"/>
			<point x="-317" y="572"/>
		</contour>
	</outline>
</glyph>
<glyph name="uni031B" format="2">
	<advance width="0"/>
	<unicode hex="031B"/>
	<anchor x="-454" y="665" name="_topright"/>
	<anchor x="-287" y="803" name="topright"/>
	<outline>
		<contour>
			<point x="-387" y="610" type="curve"/>
			<point x="-387" y="610" type="line"/>
			<point x="-321" y="610"/>
			<point x="-271" y="670"/>
			<point x="-271" y="727" type="curve"/>
			<point x="-271" y="770"/>
			<point x="-280" y="791"/>
			<point x="-287" y="803" type="curve"/>
			<point x="-326" y="803" type="line"/>
			<point x="-316" y="780"/>
			<point x="-311" y="766"/>
			<point x="-311" y="730" type="curve"/>
			<point x="-311" y="686"/>
			<point x="-338" y="644"/>
			<point x="-392" y="644" type="curve"/>
			<point x="-417" y="644"/>
			<point x="-441" y="654"/>
			<point x="-454" y="665" type="curve"/>
			<point x="-454" y="630" type="line"/>
			<point x="-435" y="619"/>
			<point x="-411" y="610"/>
		</contour>
	</outline>
</glyph>
<glyph name="uni1E9E" format="2">
	<advance width="747"/>
	<unicode hex="1E9E"/>
	<anchor x="363" y="825" name="top"/>
	<anchor x="363" y="0" name="bottom"/>
	<outline>
		<contour>
			<point x="255" y="58" type="curve"/>
			<point x="255" y="58" type="line"/>
			<point x="255" y="16" type="line"/>
			<point x="298" y="-1"/>
			<point x="359" y="-11"/>
			<point x="420" y="-11" type="curve"/>
			<point x="561" y="-11"/>
			<point x="671" y="77"/>
			<point x="671" y="245" type="curve"/>
			<point x="671" y="430"/>
			<point x="525" y="477"/>
			<point x="384" y="460" type="curve"/>
			<point x="593" y="779" type="line"/>
			<point x="596" y="818" type="line"/>
			<point x="510" y="835"/>
			<point x="438" y="845"/>
			<point x="375" y="845" type="curve"/>
			<point x="189" y="845"/>
			<point x="79" y="762"/>
			<point x="79" y="551" type="curve"/>
			<point x="79" y="0" type="line"/>
			<point x="119" y="0" type="line"/>
			<point x="119" y="532" type="line" smooth="yes"/>
			<point x="119" y="731"/>
			<point x="196" y="807"/>
			<point x="382" y="807" type="curve"/>
			<point x="432" y="807"/>
			<point x="498" y="800"/>
			<point x="554" y="786" type="curve"/>
			<point x="340" y="465" type="line"/>
			<point x="340" y="419" type="line"/>
			<point x="547" y="452"/>
			<point x="630" y="379"/>
			<point x="630" y="238" type="curve"/>
			<point x="630" y="118"/>
			<point x="565" y="29"/>
			<point x="417" y="29" type="curve"/>
			<point x="363" y="29"/>
			<point x="300" y="41"/>
		</contour>
	</outline>
</glyph>
<glyph name="endash" format="2">
	<advance width="535"/>
	<unicode hex="2013"/>
	<outline>
		<contour>
			<point x="16" y="304" type="line"/>
			<point x="16" y="266" type="line"/>
			<point x="494" y="266" type="line"/>
			<point x="494" y="304" type="line"/>
		</contour>
	</outline>
</glyph>
<glyph name="emdash" format="2">
	<advance width="985"/>
	<unicode hex="2014"/>
	<outline>
		<contour>
			<point x="27" y="304" type="line"/>
			<point x="27" y="266" type="line"/>
			<point x="932" y="266" type="line"/>
			<point x="932" y="304" type="line"/>
		</contour>
	</outline>
</glyph>
<glyph name="quoteleft" format="2">
	<advance width="265"/>
	<unicode hex="2018"/>
	<outline>
		<contour>
			<point x="131" y="577" type="curve"/>
			<point x="131" y="577" type="line"/>
			<point x="177" y="577"/>
			<point x="210" y="607"/>
			<point x="210" y="653" type="curve"/>
			<point x="210" y="687"/>
			<point x="183" y="713"/>
			<point x="149" y="713" type="curve"/>
			<point x="128" y="713"/>
			<point x="108" y="703"/>
			<point x="102" y="693" type="curve"/>
			<point x="104" y="726"/>
			<point x="139" y="775"/>
			<point x="171" y="787" type="curve"/>
			<point x="148" y="823" type="line"/>
			<point x="109" y="800"/>
			<point x="52" y="749"/>
			<point x="52" y="665" type="curve"/>
			<point x="52" y="610"/>
			<point x="86" y="577"/>
		</contour>
	</outline>
</glyph>
<glyph name="quotesinglbase" format="2">
	<advance width="287"/>
	<unicode hex="201A"/>
	<outline>
		<contour>
			<point x="143" y="110" type="curve"/>
			<point x="143" y="110" type="line"/>
			<point x="103" y="110"/>
			<point x="75" y="83"/>
			<point x="75" y="42" type="curve"/>
			<point x="75" y="13"/>
			<point x="101" y="-19"/>
			<point x="137" y="-19" type="curve"/>
			<point x="146" y="-19"/>
			<point x="156" y="-17"/>
			<point x="167" y="-12" type="curve"/>
			<point x="159" y="-53"/>
			<point x="112" y="-87"/>
			<point x="78" y="-102" type="curve"/>
			<point x="111" y="-131" type="line"/>
			<point x="167" y="-101"/>
			<point x="217" y="-42"/>
			<point x="217" y="35" type="curve"/>
			<point x="217" y="77"/>
			<point x="184" y="110"/>
		</contour>
	</outline>
</glyph>
<glyph name="bullet" format="2">
	<advance width="593"/>
	<unicode hex="2022"/>
	<outline>
		<contour>
			<point x="283" y="448" type="curve"/>
			<point x="283" y="448" type="line"/>
			<point x="233" y="448"/>
			<point x="193" y="408"/>
			<point x="193" y="356" type="curve"/>
			<point x="193" y="306"/>
			<point x="233" y="266"/>
			<point x="283" y="266" type="curve"/>
			<point x="335" y="266"/>
			<point x="375" y="306"/>
			<point x="375" y="356" type="curve"/>
			<point x="375" y="408"/>
			<point x="335" y="448"/>
		</contour>
	</outline>
</glyph>
<glyph name="perthousand" format="2">
	<advance width="991"/>
	<unicode hex="2030"/>
	<outline>
		<contour>
			<point x="931" y="755" type="line"/>
			<point x="912" y="780" type="line"/>
			<point x="10" y="185" type="line"/>
			<point x="29" y="160" type="line"/>
		</contour>
		<contour>
			<point x="135" y="643" type="curve"/>
			<point x="135" y="643" type="line"/>
			<point x="135" y="563"/>
			<point x="195" y="504"/>
			<point x="281" y="504" type="curve"/>
			<point x="362" y="504"/>
			<point x="425" y="563"/>
			<point x="425" y="643" type="curve"/>
			<point x="425" y="725"/>
			<point x="357" y="783"/>
			<point x="281" y="783" type="curve"/>
			<point x="201" y="783"/>
			<point x="135" y="725"/>
		</contour>
		<contour>
			<point x="172" y="643" type="curve"/>
			<point x="172" y="643" type="line"/>
			<point x="172" y="708"/>
			<point x="218" y="749"/>
			<point x="280" y="749" type="curve"/>
			<point x="339" y="749"/>
			<point x="388" y="708"/>
			<point x="388" y="643" type="curve"/>
			<point x="388" y="575"/>
			<point x="340" y="538"/>
			<point x="280" y="538" type="curve"/>
			<point x="215" y="538"/>
			<point x="172" y="576"/>
		</contour>
		<contour>
			<point x="284" y="181" type="curve"/>
			<point x="284" y="181" type="line"/>
			<point x="284" y="101"/>
			<point x="344" y="42"/>
			<point x="430" y="42" type="curve"/>
			<point x="511" y="42"/>
			<point x="574" y="101"/>
			<point x="574" y="181" type="curve"/>
			<point x="574" y="263"/>
			<point x="506" y="321"/>
			<point x="430" y="321" type="curve"/>
			<point x="350" y="321"/>
			<point x="284" y="263"/>
		</contour>
		<contour>
			<point x="321" y="181" type="curve"/>
			<point x="321" y="181" type="line"/>
			<point x="321" y="246"/>
			<point x="367" y="287"/>
			<point x="429" y="287" type="curve"/>
			<point x="488" y="287"/>
			<point x="537" y="246"/>
			<point x="537" y="181" type="curve"/>
			<point x="537" y="113"/>
			<point x="489" y="76"/>
			<point x="429" y="76" type="curve"/>
			<point x="364" y="76"/>
			<point x="321" y="114"/>
		</contour>
		<contour>
			<point x="650" y="181" type="curve"/>
			<point x="650" y="181" type="line"/>
			<point x="650" y="101"/>
			<point x="710" y="42"/>
			<point x="796" y="42" type="curve"/>
			<point x="877" y="42"/>
			<point x="940" y="101"/>
			<point x="940" y="181" type="curve"/>
			<point x="940" y="263"/>
			<point x="872" y="321"/>
			<point x="796" y="321" type="curve"/>
			<point x="716" y="321"/>
			<point x="650" y="263"/>
		</contour>
		<contour>
			<point x="687" y="181" type="curve"/>
			<point x="687" y="181" type="line"/>
			<point x="687" y="246"/>
			<point x="733" y="287"/>
			<point x="795" y="287" type="curve"/>
			<point x="854" y="287"/>
			<point x="903" y="246"/>
			<point x="903" y="181" type="curve"/>
			<point x="903" y="113"/>
			<point x="855" y="76"/>
			<point x="795" y="76" type="curve"/>
			<point x="730" y="76"/>
			<point x="687" y="114"/>
		</contour>
	</outline>
</glyph>
<glyph name="guilsinglleft" format="2">
	<advance width="348"/>
	<unicode hex="2039"/>
	<outline>
		<contour>
			<point x="226" y="57" type="line"/>
			<point x="250" y="77" type="line"/>
			<point x="88" y="278" type="line"/>
			<point x="250" y="480" type="line"/>
			<point x="226" y="498" type="line"/>
			<point x="52" y="278" type="line"/>
		</contour>
	</outline>
</glyph>
<glyph name="fraction" format="2">
	<advance width="249"/>
	<unicode hex="2044"/>
	<outline>
		<contour>
			<point x="359" y="825" type="line"/>
			<point x="330" y="825" type="line"/>
			<point x="-150" y="0" type="line"/>
			<point x="-121" y="0" type="line"/>
		</contour>
	</outline>
</glyph>
<glyph name="franc" format="2">
	<advance width="542"/>
	<unicode hex="20A3"/>
	<outline>
		<contour>
			<point x="318" y="247" type="line"/>
			<point x="-12" y="247" type="line"/>
			<point x="-12" y="207" type="line"/>
			<point x="318" y="207" type="line"/>
		</contour>
		<component base="F"/>
	</outline>
</glyph>
<glyph name="Euro" format="2">
	<advance width="812"/>
	<unicode hex="20AC"/>
	<outline>
		<contour>
			<point x="643" y="514" type="line"/>
			<point x="21" y="514" type="line"/>
			<point x="21" y="476" type="line"/>
			<point x="643" y="476" type="line"/>
		</contour>
		<contour>
			<point x="643" y="347" type="line"/>
			<point x="21" y="347" type="line"/>
			<point x="21" y="309" type="line"/>
			<point x="643" y="309" type="line"/>
		</contour>
		<component base="C.ss01" xOffset="47"/>
	</outline>
</glyph>
<glyph name="uni20B1" format="2">
	<advance width="611"/>
	<unicode hex="20B1"/>
	<anchor x="293" y="825" name="top"/>
	<anchor x="293" y="0" name="bottom"/>
	<outline>
		<contour>
			<point x="271" y="825" type="curve"/>
			<point x="94" y="825" type="line"/>
			<point x="94" y="0" type="line"/>
			<point x="133" y="0" type="line"/>
			<point x="133" y="244" type="line"/>
			<point x="271" y="244" type="line" smooth="yes"/>
			<point x="422" y="244"/>
			<point x="541" y="336"/>
			<point x="541" y="539" type="curve"/>
			<point x="541" y="742"/>
			<point x="422" y="825"/>
		</contour>
		<contour>
			<point x="261" y="284" type="curve"/>
			<point x="133" y="284" type="line"/>
			<point x="133" y="785" type="line"/>
			<point x="261" y="785" type="line" smooth="yes"/>
			<point x="392" y="785"/>
			<point x="501" y="722"/>
			<point x="501" y="539" type="curve"/>
			<point x="501" y="356"/>
			<point x="392" y="284"/>
		</contour>
		<contour>
			<point x="16" y="496" type="line"/>
			<point x="16" y="456" type="line"/>
			<point x="587" y="456" type="line"/>
			<point x="587" y="496" type="line"/>
		</contour>
		<contour>
			<point x="16" y="612" type="line"/>
			<point x="16" y="572" type="line"/>
			<point x="587" y="572" type="line"/>
			<point x="587" y="612" type="line"/>
		</contour>
	</outline>
</glyph>
<glyph name="uni20B9" format="2">
	<advance width="654"/>
	<unicode hex="20B9"/>
	<outline>
		<contour>
			<point x="274" y="825" type="curve"/>
			<point x="65" y="825" type="line"/>
			<point x="65" y="785" type="line"/>
			<point x="261" y="785" type="line" smooth="yes"/>
			<point x="386" y="785"/>
			<point x="469" y="726"/>
			<point x="469" y="596" type="curve"/>
			<point x="469" y="466"/>
			<point x="386" y="404"/>
			<point x="261" y="404" type="curve"/>
			<point x="65" y="404" type="line"/>
			<point x="65" y="366" type="line"/>
			<point x="273" y="366" type="line" smooth="yes"/>
			<point x="420" y="366"/>
			<point x="509" y="460"/>
			<point x="509" y="596" type="curve"/>
			<point x="509" y="746"/>
			<point x="399" y="825"/>
		</contour>
		<contour>
			<point x="65" y="825" type="line"/>
			<point x="65" y="787" type="line"/>
			<point x="575" y="787" type="line"/>
			<point x="575" y="825" type="line"/>
		</contour>
		<contour>
			<point x="65" y="611" type="line"/>
			<point x="65" y="573" type="line"/>
			<point x="576" y="573" type="line"/>
			<point x="576" y="611" type="line"/>
		</contour>
		<contour>
			<point x="96" y="393" type="line"/>
			<point x="65" y="366" type="line"/>
			<point x="442" y="0" type="line"/>
			<point x="500" y="0" type="line"/>
		</contour>
	</outline>
</glyph>
<glyph name="uni20BA" format="2">
	<advance width="540"/>
	<unicode hex="20BA"/>
	<outline>
		<contour>
			<point x="118" y="825" type="line"/>
			<point x="79" y="825" type="line"/>
			<point x="79" y="0" type="line"/>
			<point x="160" y="0" type="line"/>
			<point x="416" y="0"/>
			<point x="494" y="140"/>
			<point x="494" y="267" type="curve"/>
			<point x="454" y="267" type="line"/>
			<point x="454" y="141"/>
			<point x="388" y="40"/>
			<point x="118" y="40" type="curve"/>
		</contour>
		<contour>
			<point x="-13" y="444" type="line"/>
			<point x="-13" y="406" type="line"/>
			<point x="393" y="540" type="line"/>
			<point x="393" y="578" type="line"/>
		</contour>
		<contour>
			<point x="-13" y="312" type="line"/>
			<point x="-13" y="274" type="line"/>
			<point x="393" y="408" type="line"/>
			<point x="393" y="446" type="line"/>
		</contour>
	</outline>
</glyph>
<glyph name="uni20BC" format="2">
	<advance width="601"/>
	<unicode hex="20BC"/>
	<outline>
		<contour>
			<point x="73" y="536" type="curve"/>
			<point x="73" y="0" type="line"/>
			<point x="113" y="0" type="line"/>
			<point x="113" y="525" type="line" smooth="yes"/>
			<point x="113" y="655"/>
			<point x="172" y="737"/>
			<point x="288" y="737" type="curve"/>
			<point x="404" y="737"/>
			<point x="463" y="655"/>
			<point x="463" y="525" type="curve"/>
			<point x="463" y="0" type="line"/>
			<point x="503" y="0" type="line"/>
			<point x="503" y="536" type="line" smooth="yes"/>
			<point x="503" y="673"/>
			<point x="426" y="777"/>
			<point x="288" y="777" type="curve"/>
			<point x="150" y="777"/>
			<point x="73" y="673"/>
		</contour>
		<contour>
			<point x="267" y="860" type="line"/>
			<point x="267" y="0" type="line"/>
			<point x="305" y="0" type="line"/>
			<point x="305" y="860" type="line"/>
		</contour>
	</outline>
</glyph>
<glyph name="uni2116" format="2">
	<advance width="1411"/>
	<unicode hex="2116"/>
	<outline>
		<contour>
			<point x="1353" y="41" type="line"/>
			<point x="831" y="41" type="line"/>
			<point x="831" y="0" type="line"/>
			<point x="1353" y="0" type="line"/>
		</contour>
		<component base="N"/>
		<component base="o" xOffset="800" yOffset="302"/>
	</outline>
</glyph>
<glyph name="trademark" format="2">
	<advance width="492"/>
	<unicode hex="2122"/>
	<outline>
		<contour>
			<point x="218" y="825" type="line"/>
			<point x="35" y="825" type="line"/>
			<point x="35" y="798" type="line"/>
			<point x="114" y="798" type="line"/>
			<point x="114" y="567" type="line"/>
			<point x="140" y="567" type="line"/>
			<point x="140" y="798" type="line"/>
			<point x="218" y="798" type="line"/>
		</contour>
		<contour>
			<point x="404" y="567" type="line"/>
			<point x="430" y="567" type="line"/>
			<point x="406" y="825" type="line"/>
			<point x="368" y="825" type="line"/>
			<point x="333" y="627" type="line"/>
			<point x="296" y="825" type="line"/>
			<point x="258" y="825" type="line"/>
			<point x="235" y="567" type="line"/>
			<point x="261" y="567" type="line"/>
			<point x="278" y="783" type="line"/>
			<point x="279" y="783" type="line"/>
			<point x="312" y="569" type="line"/>
			<point x="354" y="569" type="line"/>
			<point x="386" y="783" type="line"/>
			<point x="387" y="783" type="line"/>
		</contour>
	</outline>
</glyph>
<glyph name="minus" format="2">
	<advance width="628"/>
	<unicode hex="2212"/>
	<outline>
		<contour>
			<point x="-5" y="431" type="line"/>
			<point x="-5" y="393" type="line"/>
			<point x="608" y="393" type="line"/>
			<point x="608" y="431" type="line"/>
		</contour>
	</outline>
</glyph>
<glyph name="notequal" format="2">
	<advance width="678"/>
	<unicode hex="2260"/>
	<outline>
		<contour>
			<point x="95" y="108" type="line"/>
			<point x="138" y="108" type="line"/>
			<point x="511" y="718" type="line"/>
			<point x="468" y="718" type="line"/>
		</contour>
		<component base="equal" xOffset="10"/>
	</outline>
</glyph>
<glyph name="C.ss01" format="2">
	<advance width="776"/>
	<outline>
		<contour>
			<point x="453" y="23" type="curve"/>
			<point x="453" y="23" type="line"/>
			<point x="254" y="23"/>
			<point x="79" y="177"/>
			<point x="79" y="413" type="curve"/>
			<point x="79" y="648"/>
			<point x="254" y="802"/>
			<point x="453" y="802" type="curve"/>
			<point x="578" y="802"/>
			<point x="667" y="760"/>
			<point x="700" y="729" type="curve"/>
			<point x="718" y="764" type="line"/>
			<point x="682" y="797"/>
			<point x="587" y="840"/>
			<point x="457" y="840" type="curve"/>
			<point x="213" y="840"/>
			<point x="37" y="648"/>
			<point x="37" y="411" type="curve"/>
			<point x="37" y="175"/>
			<point x="214" y="-15"/>
			<point x="457" y="-15" type="curve"/>
			<point x="587" y="-15"/>
			<point x="682" y="28"/>
			<point x="718" y="61" type="curve"/>
			<point x="700" y="96" type="line"/>
			<point x="667" y="65"/>
			<point x="578" y="23"/>
		</contour>
	</outline>
</glyph>
<glyph name="Q.ss01" format="2">
	<advance width="860"/>
	<anchor x="418" y="825" name="top"/>
	<anchor x="418" y="0" name="bottom"/>
	<outline>
		<contour>
			<point x="517" y="288" type="line"/>
			<point x="470" y="288" type="line"/>
			<point x="699" y="-104" type="line"/>
			<point x="746" y="-104" type="line"/>
		</contour>
		<component base="O"/>
	</outline>
</glyph>
<glyph name="Q.ss02" format="2">
	<advance width="878"/>
	<anchor x="427" y="825" name="top"/>
	<anchor x="427" y="0" name="bottom"/>
	<outline>
		<contour>
			<point x="418" y="-15" type="curve"/>
			<point x="418" y="-15" type="line"/>
			<point x="534" y="-15"/>
			<point x="629" y="30"/>
			<point x="696" y="104" type="curve"/>
			<point x="754" y="72"/>
			<point x="806" y="52"/>
			<point x="842" y="44" type="curve"/>
			<point x="861" y="77" type="line"/>
			<point x="837" y="81"/>
			<point x="781" y="105"/>
			<point x="718" y="137" type="curve"/>
			<point x="766" y="207"/>
			<point x="797" y="303"/>
			<point x="797" y="413" type="curve"/>
			<point x="797" y="654"/>
			<point x="646" y="840"/>
			<point x="418" y="840" type="curve"/>
			<point x="191" y="840"/>
			<point x="38" y="654"/>
			<point x="38" y="413" type="curve"/>
			<point x="38" y="172"/>
			<point x="174" y="-15"/>
		</contour>
		<contour>
			<point x="418" y="25" type="curve"/>
			<point x="418" y="25" type="line"/>
			<point x="201" y="25"/>
			<point x="79" y="203"/>
			<point x="79" y="413" type="curve"/>
			<point x="79" y="623"/>
			<point x="210" y="800"/>
			<point x="418" y="800" type="curve"/>
			<point x="626" y="800"/>
			<point x="756" y="623"/>
			<point x="756" y="413" type="curve"/>
			<point x="756" y="315"/>
			<point x="729" y="225"/>
			<point x="682" y="158" type="curve"/>
			<point x="631" y="187"/>
			<point x="572" y="225"/>
			<point x="515" y="284" type="curve"/>
			<point x="490" y="253" type="line"/>
			<point x="540" y="200"/>
			<point x="597" y="159"/>
			<point x="658" y="122" type="curve"/>
			<point x="597" y="57"/>
			<point x="508" y="25"/>
		</contour>
	</outline>
</glyph>
